<svg xmlns="http://www.w3.org/2000/svg" xmlns:xlink="http://www.w3.org/1999/xlink" width="1040" height="711.3"><rect width="1040" height="711.3" rx="5" ry="5" class="a"/><svg y="0%" x="0%"><circle cx="20" cy="20" r="6" fill="#ff5f58"/><circle cx="40" cy="20" r="6" fill="#ffbd2e"/><circle cx="60" cy="20" r="6" fill="#18c132"/></svg><svg height="651.3" viewBox="0 0 100 65.13" width="1000" x="15" xmlns="http://www.w3.org/2000/svg" xmlns:xlink="http://www.w3.org/1999/xlink" y="50"><style>@keyframes k{0%{transform:translateX(0)}1.1%{transform:translateX(-100px)}2.2%{transform:translateX(-200px)}3.3%{transform:translateX(-300px)}4.4%{transform:translateX(-400px)}5.5%{transform:translateX(-500px)}6.6%{transform:translateX(-600px)}7.7%{transform:translateX(-700px)}8.8%{transform:translateX(-800px)}9.9%{transform:translateX(-900px)}11%{transform:translateX(-1000px)}12.1%{transform:translateX(-1100px)}13.2%{transform:translateX(-1200px)}14.3%{transform:translateX(-1300px)}15.4%{transform:translateX(-1400px)}16.5%{transform:translateX(-1500px)}17.6%{transform:translateX(-1600px)}18.7%{transform:translateX(-1700px)}19.8%{transform:translateX(-1800px)}20.9%{transform:translateX(-1900px)}22%{transform:translateX(-2000px)}23.1%{transform:translateX(-2100px)}24.2%{transform:translateX(-2200px)}25.3%{transform:translateX(-2300px)}26.4%{transform:translateX(-2400px)}27.5%{transform:translateX(-2500px)}28.6%{transform:translateX(-2600px)}29.7%{transform:translateX(-2700px)}30.8%{transform:translateX(-2800px)}31.9%{transform:translateX(-2900px)}33%{transform:translateX(-3000px)}34.1%{transform:translateX(-3100px)}35.2%{transform:translateX(-3200px)}36.3%{transform:translateX(-3300px)}37.5%{transform:translateX(-3400px)}38.6%{transform:translateX(-3500px)}39.7%{transform:translateX(-3600px)}40.8%{transform:translateX(-3700px)}41.9%{transform:translateX(-3800px)}43%{transform:translateX(-3900px)}44.1%{transform:translateX(-4000px)}45.2%{transform:translateX(-4100px)}46.3%{transform:translateX(-4200px)}47.4%{transform:translateX(-4300px)}48.5%{transform:translateX(-4400px)}49.6%{transform:translateX(-4500px)}50.7%{transform:translateX(-4600px)}51.8%{transform:translateX(-4700px)}52.9%{transform:translateX(-4800px)}53.7%{transform:translateX(-6300px)}58.3%{transform:translateX(-6400px)}62.9%{transform:translateX(-6500px)}67.6%{transform:translateX(-6600px)}72.2%{transform:translateX(-6700px)}76.8%{transform:translateX(-6800px)}81.5%{transform:translateX(-6900px)}86.1%{transform:translateX(-7000px)}90.7%{transform:translateX(-7100px)}95.4%{transform:translateX(-7200px)}to{transform:translateX(-7400px)}}.a{fill:#282d35}.f{fill:#b9c0cb;white-space:pre}.g{fill:gold}.h{white-space:pre}</style><g font-family="Monaco,Consolas,Menlo,'Bitstream Vera Sans Mono','Powerline Symbols',monospace" font-size="1.67"><defs><symbol id="1"><text y="1.67" class="f">$</text><text x="2.004" y="1.67" class="f">or-signals</text></symbol><symbol id="2"><text y="1.67" class="f">$</text><text x="2.004" y="1.67" class="f">or-signals</text><text x="13.026" y="1.67" class="f">inspect</text></symbol><symbol id="3"><text y="1.67" class="f">$</text><text x="2.004" y="1.67" class="f">or-signals</text><text x="13.026" y="1.67" class="f">inspect</text><text x="21.042" y="1.67" class="f">--case</text></symbol><symbol id="4"><text y="1.67" class="f">$</text><text x="2.004" y="1.67" class="f">or-signals</text><text x="13.026" y="1.67" class="f">inspect</text><text x="21.042" y="1.67" class="f">--case</text><text x="28.056" y="1.67" class="f">&apos;data/sample/clean.*&apos;</text></symbol><symbol id="5"><text y="1.67" class="f">Research</text><text x="9.018" y="1.67" class="f">tool</text><text x="14.028" y="1.67" class="f">only.</text><text x="20.04" y="1.67" class="f">Not</text><text x="24.048" y="1.67" class="f">a</text><text x="26.052" y="1.67" class="f">clinical</text><text x="35.07" y="1.67" class="f">monitor</text><text x="43.086" y="1.67" class="f">and</text><text x="47.094" y="1.67" class="f">not</text><text x="51.102" y="1.67" class="f">a</text><text x="53.106" y="1.67" class="f">medical</text><text x="61.122" y="1.67" class="f">device.</text><text x="69.138" y="1.67" class="f">Depth-index</text><text x="81.162" y="1.67" class="f">proxies</text><text x="89.178" y="1.67" class="f">are</text><text x="93.186" y="1.67" class="f">not</text><text x="97.194" y="1.67" class="f">awa</text></symbol><symbol id="6"><text y="1.67" class="f">reness</text><text x="7.014" y="1.67" class="f">labels.</text><text x="15.03" y="1.67" class="f">This</text><text x="20.04" y="1.67" class="f">output</text><text x="27.054" y="1.67" class="f">is</text><text x="30.06" y="1.67" class="f">not</text><text x="34.068" y="1.67" class="f">clinical</text><text x="43.086" y="1.67" class="f">advice.</text></symbol><symbol id="7"><text x="50.1" y="1.67" class="f">case:</text><text x="56.112" y="1.67" class="f">clean</text><text x="63.126" y="1.67" class="f">synthetic=True</text></symbol><symbol id="8"><text x="77.154" y="1.67" class="f">duration_sec=60.0</text><text x="96.192" y="1.67" class="f">wave</text></symbol><symbol id="9"><text y="1.67" class="f">form_hz=100.0</text><text x="15.03" y="1.67" class="f">numeric_hz=1.0</text></symbol><symbol id="10"><path class="g" d="M29.058 0h64v2.171h-64z"/><text x="29.058" y="1.67" class="h">channel sfreq n cover usable_s usable%</text></symbol><symbol id="11"><text x="93.186" y="1.67" class="f">abp</text></symbol><symbol id="12"><text x="18.036" y="1.67" class="f">100.0</text><text x="27.054" y="1.67" class="f">6000</text><text x="34.068" y="1.67" class="f">1.000</text><text x="44.088" y="1.67" class="f">60.00</text><text x="52.104" y="1.67" class="f">1.000</text></symbol><symbol id="13"><text x="57.114" y="1.67" class="f">spo2</text><text x="84.168" y="1.67" class="f">1.0</text><text x="93.186" y="1.67" class="f">60</text><text x="98.196" y="1.67" class="f">1.</text></symbol><symbol id="14"><text y="1.67" class="f">000</text><text x="8.016" y="1.67" class="f">60.00</text><text x="16.032" y="1.67" class="f">1.000</text></symbol><symbol id="15"><text x="21.042" y="1.67" class="f">bis</text><text x="48.096" y="1.67" class="f">1.0</text><text x="57.114" y="1.67" class="f">60</text><text x="62.124" y="1.67" class="f">1.000</text><text x="72.144" y="1.67" class="f">60.00</text><text x="80.16" y="1.67" class="f">1.000</text></symbol><symbol id="16"><text x="85.17" y="1.67" class="f">infusion_mg_per</text></symbol><symbol id="17"><text y="1.67" class="f">_min</text><text x="12.024" y="1.67" class="f">1.0</text><text x="21.042" y="1.67" class="f">60</text><text x="26.052" y="1.67" class="f">1.000</text><text x="36.072" y="1.67" class="f">60.00</text><text x="44.088" y="1.67" class="f">1.000</text></symbol><symbol id="18"><text x="49.098" y="1.67" class="f">ce_ug_per_ml</text><text x="76.152" y="1.67" class="f">1.0</text><text x="85.17" y="1.67" class="f">60</text><text x="90.18" y="1.67" class="f">1.000</text></symbol><symbol id="19"><text y="1.67" class="f">60.00</text><text x="8.016" y="1.67" class="f">1.000</text></symbol><symbol id="20"><path class="g" d="M13.026 0h51v2.171h-51z"/><text x="13.026" y="1.67" class="h">usable duration after SQI (min of ABP/SpO2): 60.00s</text></symbol><symbol id="21"><text x="64.128" y="1.67" class="f">Waveforms</text><text x="74.148" y="1.67" class="f">are</text><text x="78.156" y="1.67" class="f">synthetic.</text><text x="89.178" y="1.67" class="f">Depth-index</text></symbol><symbol id="22"><text x="1.002" y="1.67" class="f">proxies</text><text x="9.018" y="1.67" class="f">are</text><text x="13.026" y="1.67" class="f">not</text><text x="17.034" y="1.67" class="f">awareness</text><text x="27.054" y="1.67" class="f">labels.</text></symbol><symbol id="a"><path fill="transparent" d="M0 0h100v31H0z"/></symbol><symbol id="b"><path fill="#6f7683" d="M0 0h1.102v2.171H0z"/></symbol></defs><path class="a" d="M0 0h100v65.13H0z"/><g style="animation-duration:7.5567s;animation-iteration-count:infinite;animation-name:k;animation-timing-function:steps(1,end)"><svg width="7500"><svg><use xlink:href="#a"/><use xlink:href="#b" x="-.004"/></svg><svg x="100"><use xlink:href="#a"/><use xlink:href="#b" x="1.996"/><text y="1.67" class="f">$</text></svg><svg x="200"><use xlink:href="#a"/><use xlink:href="#b" x="2.996"/><text y="1.67" class="f">$</text><text x="2.004" y="1.67" class="f">o</text></svg><svg x="300"><use xlink:href="#a"/><use xlink:href="#b" x="3.996"/><text y="1.67" class="f">$</text><text x="2.004" y="1.67" class="f">or</text></svg><svg x="400"><use xlink:href="#a"/><use xlink:href="#b" x="4.996"/><text y="1.67" class="f">$</text><text x="2.004" y="1.67" class="f">or-</text></svg><svg x="500"><use xlink:href="#a"/><use xlink:href="#b" x="5.996"/><text y="1.67" class="f">$</text><text x="2.004" y="1.67" class="f">or-s</text></svg><svg x="600"><use xlink:href="#a"/><use xlink:href="#b" x="6.996"/><text y="1.67" class="f">$</text><text x="2.004" y="1.67" class="f">or-si</text></svg><svg x="700"><use xlink:href="#a"/><use xlink:href="#b" x="7.996"/><text y="1.67" class="f">$</text><text x="2.004" y="1.67" class="f">or-sig</text></svg><svg x="800"><use xlink:href="#a"/><use xlink:href="#b" x="8.996"/><text y="1.67" class="f">$</text><text x="2.004" y="1.67" class="f">or-sign</text></svg><svg x="900"><use xlink:href="#a"/><use xlink:href="#b" x="9.996"/><text y="1.67" class="f">$</text><text x="2.004" y="1.67" class="f">or-signa</text></svg><svg x="1000"><use xlink:href="#a"/><use xlink:href="#b" x="10.996"/><text y="1.67" class="f">$</text><text x="2.004" y="1.67" class="f">or-signal</text></svg><svg x="1100"><use xlink:href="#a"/><use xlink:href="#b" x="11.996"/><use xlink:href="#1"/></svg><svg x="1200"><use xlink:href="#a"/><use xlink:href="#b" x="12.996"/><use xlink:href="#1"/></svg><svg x="1300"><use xlink:href="#a"/><use xlink:href="#b" x="13.996"/><text y="1.67" class="f">$</text><text x="2.004" y="1.67" class="f">or-signals</text><text x="13.026" y="1.67" class="f">i</text></svg><svg x="1400"><use xlink:href="#a"/><use xlink:href="#b" x="14.996"/><text y="1.67" class="f">$</text><text x="2.004" y="1.67" class="f">or-signals</text><text x="13.026" y="1.67" class="f">in</text></svg><svg x="1500"><use xlink:href="#a"/><use xlink:href="#b" x="15.996"/><text y="1.67" class="f">$</text><text x="2.004" y="1.67" class="f">or-signals</text><text x="13.026" y="1.67" class="f">ins</text></svg><svg x="1600"><use xlink:href="#a"/><use xlink:href="#b" x="16.996"/><text y="1.67" class="f">$</text><text x="2.004" y="1.67" class="f">or-signals</text><text x="13.026" y="1.67" class="f">insp</text></svg><svg x="1700"><use xlink:href="#a"/><use xlink:href="#b" x="17.996"/><text y="1.67" class="f">$</text><text x="2.004" y="1.67" class="f">or-signals</text><text x="13.026" y="1.67" class="f">inspe</text></svg><svg x="1800"><use xlink:href="#a"/><use xlink:href="#b" x="18.996"/><text y="1.67" class="f">$</text><text x="2.004" y="1.67" class="f">or-signals</text><text x="13.026" y="1.67" class="f">inspec</text></svg><svg x="1900"><use xlink:href="#a"/><use xlink:href="#b" x="19.996"/><use xlink:href="#2"/></svg><svg x="2000"><use xlink:href="#a"/><use xlink:href="#b" x="20.996"/><use xlink:href="#2"/></svg><svg x="2100"><use xlink:href="#a"/><use xlink:href="#b" x="21.996"/><text y="1.67" class="f">$</text><text x="2.004" y="1.67" class="f">or-signals</text><text x="13.026" y="1.67" class="f">inspect</text><text x="21.042" y="1.67" class="f">-</text></svg><svg x="2200"><use xlink:href="#a"/><use xlink:href="#b" x="22.996"/><text y="1.67" class="f">$</text><text x="2.004" y="1.67" class="f">or-signals</text><text x="13.026" y="1.67" class="f">inspect</text><text x="21.042" y="1.67" class="f">--</text></svg><svg x="2300"><use xlink:href="#a"/><use xlink:href="#b" x="23.996"/><text y="1.67" class="f">$</text><text x="2.004" y="1.67" class="f">or-signals</text><text x="13.026" y="1.67" class="f">inspect</text><text x="21.042" y="1.67" class="f">--c</text></svg><svg x="2400"><use xlink:href="#a"/><use xlink:href="#b" x="24.996"/><text y="1.67" class="f">$</text><text x="2.004" y="1.67" class="f">or-signals</text><text x="13.026" y="1.67" class="f">inspect</text><text x="21.042" y="1.67" class="f">--ca</text></svg><svg x="2500"><use xlink:href="#a"/><use xlink:href="#b" x="25.996"/><text y="1.67" class="f">$</text><text x="2.004" y="1.67" class="f">or-signals</text><text x="13.026" y="1.67" class="f">inspect</text><text x="21.042" y="1.67" class="f">--cas</text></svg><svg x="2600"><use xlink:href="#a"/><use xlink:href="#b" x="26.996"/><use xlink:href="#3"/></svg><svg x="2700"><use xlink:href="#a"/><use xlink:href="#b" x="27.996"/><use xlink:href="#3"/></svg><svg x="2800"><use xlink:href="#a"/><use xlink:href="#b" x="28.996"/><text y="1.67" class="f">$</text><text x="2.004" y="1.67" class="f">or-signals</text><text x="13.026" y="1.67" class="f">inspect</text><text x="21.042" y="1.67" class="f">--case</text><text x="28.056" y="1.67" class="f">&apos;</text></svg><svg x="2900"><use xlink:href="#a"/><use xlink:href="#b" x="29.996"/><text y="1.67" class="f">$</text><text x="2.004" y="1.67" class="f">or-signals</text><text x="13.026" y="1.67" class="f">inspect</text><text x="21.042" y="1.67" class="f">--case</text><text x="28.056" y="1.67" class="f">&apos;d</text></svg><svg x="3000"><use xlink:href="#a"/><use xlink:href="#b" x="30.996"/><text y="1.67" class="f">$</text><text x="2.004" y="1.67" class="f">or-signals</text><text x="13.026" y="1.67" class="f">inspect</text><text x="21.042" y="1.67" class="f">--case</text><text x="28.056" y="1.67" class="f">&apos;da</text></svg><svg x="3100"><use xlink:href="#a"/><use xlink:href="#b" x="31.996"/><text y="1.67" class="f">$</text><text x="2.004" y="1.67" class="f">or-signals</text><text x="13.026" y="1.67" class="f">inspect</text><text x="21.042" y="1.67" class="f">--case</text><text x="28.056" y="1.67" class="f">&apos;dat</text></svg><svg x="3200"><use xlink:href="#a"/><use xlink:href="#b" x="32.996"/><text y="1.67" class="f">$</text><text x="2.004" y="1.67" class="f">or-signals</text><text x="13.026" y="1.67" class="f">inspect</text><text x="21.042" y="1.67" class="f">--case</text><text x="28.056" y="1.67" class="f">&apos;data</text></svg><svg x="3300"><use xlink:href="#a"/><use xlink:href="#b" x="33.996"/><text y="1.67" class="f">$</text><text x="2.004" y="1.67" class="f">or-signals</text><text x="13.026" y="1.67" class="f">inspect</text><text x="21.042" y="1.67" class="f">--case</text><text x="28.056" y="1.67" class="f">&apos;data/</text></svg><svg x="3400"><use xlink:href="#a"/><use xlink:href="#b" x="34.996"/><text y="1.67" class="f">$</text><text x="2.004" y="1.67" class="f">or-signals</text><text x="13.026" y="1.67" class="f">inspect</text><text x="21.042" y="1.67" class="f">--case</text><text x="28.056" y="1.67" class="f">&apos;data/s</text></svg><svg x="3500"><use xlink:href="#a"/><use xlink:href="#b" x="35.996"/><text y="1.67" class="f">$</text><text x="2.004" y="1.67" class="f">or-signals</text><text x="13.026" y="1.67" class="f">inspect</text><text x="21.042" y="1.67" class="f">--case</text><text x="28.056" y="1.67" class="f">&apos;data/sa</text></svg><svg x="3600"><use xlink:href="#a"/><use xlink:href="#b" x="36.996"/><text y="1.67" class="f">$</text><text x="2.004" y="1.67" class="f">or-signals</text><text x="13.026" y="1.67" class="f">inspect</text><text x="21.042" y="1.67" class="f">--case</text><text x="28.056" y="1.67" class="f">&apos;data/sam</text></svg><svg x="3700"><use xlink:href="#a"/><use xlink:href="#b" x="37.996"/><text y="1.67" class="f">$</text><text x="2.004" y="1.67" class="f">or-signals</text><text x="13.026" y="1.67" class="f">inspect</text><text x="21.042" y="1.67" class="f">--case</text><text x="28.056" y="1.67" class="f">&apos;data/samp</text></svg><svg x="3800"><use xlink:href="#a"/><use xlink:href="#b" x="38.996"/><text y="1.67" class="f">$</text><text x="2.004" y="1.67" class="f">or-signals</text><text x="13.026" y="1.67" class="f">inspect</text><text x="21.042" y="1.67" class="f">--case</text><text x="28.056" y="1.67" class="f">&apos;data/sampl</text></svg><svg x="3900"><use xlink:href="#a"/><use xlink:href="#b" x="39.996"/><text y="1.67" class="f">$</text><text x="2.004" y="1.67" class="f">or-signals</text><text x="13.026" y="1.67" class="f">inspect</text><text x="21.042" y="1.67" class="f">--case</text><text x="28.056" y="1.67" class="f">&apos;data/sample</text></svg><svg x="4000"><use xlink:href="#a"/><use xlink:href="#b" x="40.996"/><text y="1.67" class="f">$</text><text x="2.004" y="1.67" class="f">or-signals</text><text x="13.026" y="1.67" class="f">inspect</text><text x="21.042" y="1.67" class="f">--case</text><text x="28.056" y="1.67" class="f">&apos;data/sample/</text></svg><svg x="4100"><use xlink:href="#a"/><use xlink:href="#b" x="41.996"/><text y="1.67" class="f">$</text><text x="2.004" y="1.67" class="f">or-signals</text><text x="13.026" y="1.67" class="f">inspect</text><text x="21.042" y="1.67" class="f">--case</text><text x="28.056" y="1.67" class="f">&apos;data/sample/c</text></svg><svg x="4200"><use xlink:href="#a"/><use xlink:href="#b" x="42.996"/><text y="1.67" class="f">$</text><text x="2.004" y="1.67" class="f">or-signals</text><text x="13.026" y="1.67" class="f">inspect</text><text x="21.042" y="1.67" class="f">--case</text><text x="28.056" y="1.67" class="f">&apos;data/sample/cl</text></svg><svg x="4300"><use xlink:href="#a"/><use xlink:href="#b" x="43.996"/><text y="1.67" class="f">$</text><text x="2.004" y="1.67" class="f">or-signals</text><text x="13.026" y="1.67" class="f">inspect</text><text x="21.042" y="1.67" class="f">--case</text><text x="28.056" y="1.67" class="f">&apos;data/sample/cle</text></svg><svg x="4400"><use xlink:href="#a"/><use xlink:href="#b" x="44.996"/><text y="1.67" class="f">$</text><text x="2.004" y="1.67" class="f">or-signals</text><text x="13.026" y="1.67" class="f">inspect</text><text x="21.042" y="1.67" class="f">--case</text><text x="28.056" y="1.67" class="f">&apos;data/sample/clea</text></svg><svg x="4500"><use xlink:href="#a"/><use xlink:href="#b" x="45.996"/><text y="1.67" class="f">$</text><text x="2.004" y="1.67" class="f">or-signals</text><text x="13.026" y="1.67" class="f">inspect</text><text x="21.042" y="1.67" class="f">--case</text><text x="28.056" y="1.67" class="f">&apos;data/sample/clean</text></svg><svg x="4600"><use xlink:href="#a"/><use xlink:href="#b" x="46.996"/><text y="1.67" class="f">$</text><text x="2.004" y="1.67" class="f">or-signals</text><text x="13.026" y="1.67" class="f">inspect</text><text x="21.042" y="1.67" class="f">--case</text><text x="28.056" y="1.67" class="f">&apos;data/sample/clean.</text></svg><svg x="4700"><use xlink:href="#a"/><use xlink:href="#b" x="47.996"/><text y="1.67" class="f">$</text><text x="2.004" y="1.67" class="f">or-signals</text><text x="13.026" y="1.67" class="f">inspect</text><text x="21.042" y="1.67" class="f">--case</text><text x="28.056" y="1.67" class="f">&apos;data/sample/clean.*</text></svg><svg x="4800"><use xlink:href="#a"/><use xlink:href="#b" x="48.996"/><use xlink:href="#4"/></svg><svg x="4900"><use xlink:href="#a"/><use xlink:href="#b" x="-.004" y="2.146"/><use xlink:href="#4"/></svg><svg x="5000"><use xlink:href="#a"/><use xlink:href="#b" x="49.996" y="6.488"/><use xlink:href="#4"/><use xlink:href="#5" y="2.171"/><use xlink:href="#6" y="4.342"/></svg><svg x="5100"><use xlink:href="#a"/><use xlink:href="#b" x="49.996" y="8.659"/><use xlink:href="#4"/><use xlink:href="#5" y="2.171"/><use xlink:href="#6" y="4.342"/></svg><svg x="5200"><use xlink:href="#a"/><use xlink:href="#b" x="76.996" y="10.83"/><use xlink:href="#4"/><use xlink:href="#5" y="2.171"/><use xlink:href="#6" y="4.342"/><use xlink:href="#7" y="8.684"/></svg><svg x="5300"><use xlink:href="#a"/><use xlink:href="#b" x="28.996" y="15.172"/><use xlink:href="#4"/><use xlink:href="#5" y="2.171"/><use xlink:href="#6" y="4.342"/><use xlink:href="#7" y="8.684"/><use xlink:href="#8" y="10.855"/><use xlink:href="#9" y="13.026"/></svg><svg x="5400"><use xlink:href="#a"/><use xlink:href="#b" x="28.996" y="17.343"/><use xlink:href="#4"/><use xlink:href="#5" y="2.171"/><use xlink:href="#6" y="4.342"/><use xlink:href="#7" y="8.684"/><use xlink:href="#8" y="10.855"/><use xlink:href="#9" y="13.026"/></svg><svg x="5500"><use xlink:href="#a"/><use xlink:href="#b" x="92.996" y="19.514"/><use xlink:href="#4"/><use xlink:href="#5" y="2.171"/><use xlink:href="#6" y="4.342"/><use xlink:href="#7" y="8.684"/><use xlink:href="#8" y="10.855"/><use xlink:href="#9" y="13.026"/><use xlink:href="#10" y="17.368"/></svg><svg x="5600"><use xlink:href="#a"/><use xlink:href="#b" x="56.996" y="23.856"/><use xlink:href="#4"/><use xlink:href="#5" y="2.171"/><use xlink:href="#6" y="4.342"/><use xlink:href="#7" y="8.684"/><use xlink:href="#8" y="10.855"/><use xlink:href="#9" y="13.026"/><use xlink:href="#10" y="17.368"/><use xlink:href="#11" y="19.539"/><use xlink:href="#12" y="21.71"/></svg><svg x="5700"><use xlink:href="#a"/><use xlink:href="#b" x="20.996" y="28.198"/><use xlink:href="#4"/><use xlink:href="#5" y="2.171"/><use xlink:href="#6" y="4.342"/><use xlink:href="#7" y="8.684"/><use xlink:href="#8" y="10.855"/><use xlink:href="#9" y="13.026"/><use xlink:href="#10" y="17.368"/><use xlink:href="#11" y="19.539"/><use xlink:href="#12" y="21.71"/><use xlink:href="#13" y="23.881"/><use xlink:href="#14" y="26.052"/></svg><svg x="5800"><use xlink:href="#a"/><use xlink:href="#b" x="84.996" y="30.369"/><use xlink:href="#4"/><use xlink:href="#5" y="2.171"/><use xlink:href="#6" y="4.342"/><use xlink:href="#7" y="8.684"/><use xlink:href="#8" y="10.855"/><use xlink:href="#9" y="13.026"/><use xlink:href="#10" y="17.368"/><use xlink:href="#11" y="19.539"/><use xlink:href="#12" y="21.71"/><use xlink:href="#13" y="23.881"/><use xlink:href="#14" y="26.052"/><use xlink:href="#15" y="28.223"/></svg><svg x="5900"><use xlink:href="#a"/><use xlink:href="#b" x="48.996" y="34.711"/><use xlink:href="#4"/><use xlink:href="#5" y="2.171"/><use xlink:href="#6" y="4.342"/><use xlink:href="#7" y="8.684"/><use xlink:href="#8" y="10.855"/><use xlink:href="#9" y="13.026"/><use xlink:href="#10" y="17.368"/><use xlink:href="#11" y="19.539"/><use xlink:href="#12" y="21.71"/><use xlink:href="#13" y="23.881"/><use xlink:href="#14" y="26.052"/><use xlink:href="#15" y="28.223"/><use xlink:href="#16" y="30.394"/><use xlink:href="#17" y="32.565"/></svg><svg x="6000"><use xlink:href="#a"/><use xlink:href="#b" x="12.996" y="39.053"/><use xlink:href="#4"/><use xlink:href="#5" y="2.171"/><use xlink:href="#6" y="4.342"/><use xlink:href="#7" y="8.684"/><use xlink:href="#8" y="10.855"/><use xlink:href="#9" y="13.026"/><use xlink:href="#10" y="17.368"/><use xlink:href="#11" y="19.539"/><use xlink:href="#12" y="21.71"/><use xlink:href="#13" y="23.881"/><use xlink:href="#14" y="26.052"/><use xlink:href="#15" y="28.223"/><use xlink:href="#16" y="30.394"/><use xlink:href="#17" y="32.565"/><use xlink:href="#18" y="34.736"/><use xlink:href="#19" y="36.907"/></svg><svg x="6100"><use xlink:href="#a"/><use xlink:href="#b" x="12.996" y="41.224"/><use xlink:href="#4"/><use xlink:href="#5" y="2.171"/><use xlink:href="#6" y="4.342"/><use xlink:href="#7" y="8.684"/><use xlink:href="#8" y="10.855"/><use xlink:href="#9" y="13.026"/><use xlink:href="#10" y="17.368"/><use xlink:href="#11" y="19.539"/><use xlink:href="#12" y="21.71"/><use xlink:href="#13" y="23.881"/><use xlink:href="#14" y="26.052"/><use xlink:href="#15" y="28.223"/><use xlink:href="#16" y="30.394"/><use xlink:href="#17" y="32.565"/><use xlink:href="#18" y="34.736"/><use xlink:href="#19" y="36.907"/></svg><svg x="6200"><use xlink:href="#a"/><use xlink:href="#b" x="63.996" y="43.395"/><use xlink:href="#4"/><use xlink:href="#5" y="2.171"/><use xlink:href="#6" y="4.342"/><use xlink:href="#7" y="8.684"/><use xlink:href="#8" y="10.855"/><use xlink:href="#9" y="13.026"/><use xlink:href="#10" y="17.368"/><use xlink:href="#11" y="19.539"/><use xlink:href="#12" y="21.71"/><use xlink:href="#13" y="23.881"/><use xlink:href="#14" y="26.052"/><use xlink:href="#15" y="28.223"/><use xlink:href="#16" y="30.394"/><use xlink:href="#17" y="32.565"/><use xlink:href="#18" y="34.736"/><use xlink:href="#19" y="36.907"/><use xlink:href="#20" y="41.249"/></svg><svg x="6300"><use xlink:href="#a"/><use xlink:href="#b" x="33.996" y="47.737"/><use xlink:href="#4"/><use xlink:href="#5" y="2.171"/><use xlink:href="#6" y="4.342"/><use xlink:href="#7" y="8.684"/><use xlink:href="#8" y="10.855"/><use xlink:href="#9" y="13.026"/><use xlink:href="#10" y="17.368"/><use xlink:href="#11" y="19.539"/><use xlink:href="#12" y="21.71"/><use xlink:href="#13" y="23.881"/><use xlink:href="#14" y="26.052"/><use xlink:href="#15" y="28.223"/><use xlink:href="#16" y="30.394"/><use xlink:href="#17" y="32.565"/><use xlink:href="#18" y="34.736"/><use xlink:href="#19" y="36.907"/><use xlink:href="#20" y="41.249"/><use xlink:href="#21" y="43.42"/><use xlink:href="#22" y="45.591"/></svg><svg x="6400"><use xlink:href="#a"/><use xlink:href="#b" x="33.996" y="47.737"/><use xlink:href="#4"/><use xlink:href="#5" y="2.171"/><use xlink:href="#6" y="4.342"/><use xlink:href="#7" y="8.684"/><use xlink:href="#8" y="10.855"/><use xlink:href="#9" y="13.026"/><use xlink:href="#10" y="17.368"/><use xlink:href="#11" y="19.539"/><use xlink:href="#12" y="21.71"/><use xlink:href="#13" y="23.881"/><use xlink:href="#14" y="26.052"/><use xlink:href="#15" y="28.223"/><use xlink:href="#16" y="30.394"/><use xlink:href="#17" y="32.565"/><use xlink:href="#18" y="34.736"/><use xlink:href="#19" y="36.907"/><use xlink:href="#20" y="41.249"/><use xlink:href="#21" y="43.42"/><use xlink:href="#22" y="45.591"/></svg><svg x="6500"><use xlink:href="#a"/><use xlink:href="#b" x="33.996" y="47.737"/><use xlink:href="#4"/><use xlink:href="#5" y="2.171"/><use xlink:href="#6" y="4.342"/><use xlink:href="#7" y="8.684"/><use xlink:href="#8" y="10.855"/><use xlink:href="#9" y="13.026"/><use xlink:href="#10" y="17.368"/><use xlink:href="#11" y="19.539"/><use xlink:href="#12" y="21.71"/><use xlink:href="#13" y="23.881"/><use xlink:href="#14" y="26.052"/><use xlink:href="#15" y="28.223"/><use xlink:href="#16" y="30.394"/><use xlink:href="#17" y="32.565"/><use xlink:href="#18" y="34.736"/><use xlink:href="#19" y="36.907"/><use xlink:href="#20" y="41.249"/><use xlink:href="#21" y="43.42"/><use xlink:href="#22" y="45.591"/></svg><svg x="6600"><use xlink:href="#a"/><use xlink:href="#b" x="33.996" y="47.737"/><use xlink:href="#4"/><use xlink:href="#5" y="2.171"/><use xlink:href="#6" y="4.342"/><use xlink:href="#7" y="8.684"/><use xlink:href="#8" y="10.855"/><use xlink:href="#9" y="13.026"/><use xlink:href="#10" y="17.368"/><use xlink:href="#11" y="19.539"/><use xlink:href="#12" y="21.71"/><use xlink:href="#13" y="23.881"/><use xlink:href="#14" y="26.052"/><use xlink:href="#15" y="28.223"/><use xlink:href="#16" y="30.394"/><use xlink:href="#17" y="32.565"/><use xlink:href="#18" y="34.736"/><use xlink:href="#19" y="36.907"/><use xlink:href="#20" y="41.249"/><use xlink:href="#21" y="43.42"/><use xlink:href="#22" y="45.591"/></svg><svg x="6700"><use xlink:href="#a"/><use xlink:href="#b" x="33.996" y="47.737"/><use xlink:href="#4"/><use xlink:href="#5" y="2.171"/><use xlink:href="#6" y="4.342"/><use xlink:href="#7" y="8.684"/><use xlink:href="#8" y="10.855"/><use xlink:href="#9" y="13.026"/><use xlink:href="#10" y="17.368"/><use xlink:href="#11" y="19.539"/><use xlink:href="#12" y="21.71"/><use xlink:href="#13" y="23.881"/><use xlink:href="#14" y="26.052"/><use xlink:href="#15" y="28.223"/><use xlink:href="#16" y="30.394"/><use xlink:href="#17" y="32.565"/><use xlink:href="#18" y="34.736"/><use xlink:href="#19" y="36.907"/><use xlink:href="#20" y="41.249"/><use xlink:href="#21" y="43.42"/><use xlink:href="#22" y="45.591"/></svg><svg x="6800"><use xlink:href="#a"/><use xlink:href="#b" x="33.996" y="47.737"/><use xlink:href="#4"/><use xlink:href="#5" y="2.171"/><use xlink:href="#6" y="4.342"/><use xlink:href="#7" y="8.684"/><use xlink:href="#8" y="10.855"/><use xlink:href="#9" y="13.026"/><use xlink:href="#10" y="17.368"/><use xlink:href="#11" y="19.539"/><use xlink:href="#12" y="21.71"/><use xlink:href="#13" y="23.881"/><use xlink:href="#14" y="26.052"/><use xlink:href="#15" y="28.223"/><use xlink:href="#16" y="30.394"/><use xlink:href="#17" y="32.565"/><use xlink:href="#18" y="34.736"/><use xlink:href="#19" y="36.907"/><use xlink:href="#20" y="41.249"/><use xlink:href="#21" y="43.42"/><use xlink:href="#22" y="45.591"/></svg><svg x="6900"><use xlink:href="#a"/><use xlink:href="#b" x="33.996" y="47.737"/><use xlink:href="#4"/><use xlink:href="#5" y="2.171"/><use xlink:href="#6" y="4.342"/><use xlink:href="#7" y="8.684"/><use xlink:href="#8" y="10.855"/><use xlink:href="#9" y="13.026"/><use xlink:href="#10" y="17.368"/><use xlink:href="#11" y="19.539"/><use xlink:href="#12" y="21.71"/><use xlink:href="#13" y="23.881"/><use xlink:href="#14" y="26.052"/><use xlink:href="#15" y="28.223"/><use xlink:href="#16" y="30.394"/><use xlink:href="#17" y="32.565"/><use xlink:href="#18" y="34.736"/><use xlink:href="#19" y="36.907"/><use xlink:href="#20" y="41.249"/><use xlink:href="#21" y="43.42"/><use xlink:href="#22" y="45.591"/></svg><svg x="7000"><use xlink:href="#a"/><use xlink:href="#b" x="33.996" y="47.737"/><use xlink:href="#4"/><use xlink:href="#5" y="2.171"/><use xlink:href="#6" y="4.342"/><use xlink:href="#7" y="8.684"/><use xlink:href="#8" y="10.855"/><use xlink:href="#9" y="13.026"/><use xlink:href="#10" y="17.368"/><use xlink:href="#11" y="19.539"/><use xlink:href="#12" y="21.71"/><use xlink:href="#13" y="23.881"/><use xlink:href="#14" y="26.052"/><use xlink:href="#15" y="28.223"/><use xlink:href="#16" y="30.394"/><use xlink:href="#17" y="32.565"/><use xlink:href="#18" y="34.736"/><use xlink:href="#19" y="36.907"/><use xlink:href="#20" y="41.249"/><use xlink:href="#21" y="43.42"/><use xlink:href="#22" y="45.591"/></svg><svg x="7100"><use xlink:href="#a"/><use xlink:href="#b" x="33.996" y="47.737"/><use xlink:href="#4"/><use xlink:href="#5" y="2.171"/><use xlink:href="#6" y="4.342"/><use xlink:href="#7" y="8.684"/><use xlink:href="#8" y="10.855"/><use xlink:href="#9" y="13.026"/><use xlink:href="#10" y="17.368"/><use xlink:href="#11" y="19.539"/><use xlink:href="#12" y="21.71"/><use xlink:href="#13" y="23.881"/><use xlink:href="#14" y="26.052"/><use xlink:href="#15" y="28.223"/><use xlink:href="#16" y="30.394"/><use xlink:href="#17" y="32.565"/><use xlink:href="#18" y="34.736"/><use xlink:href="#19" y="36.907"/><use xlink:href="#20" y="41.249"/><use xlink:href="#21" y="43.42"/><use xlink:href="#22" y="45.591"/></svg><svg x="7200"><use xlink:href="#a"/><use xlink:href="#b" x="33.996" y="47.737"/><use xlink:href="#4"/><use xlink:href="#5" y="2.171"/><use xlink:href="#6" y="4.342"/><use xlink:href="#7" y="8.684"/><use xlink:href="#8" y="10.855"/><use xlink:href="#9" y="13.026"/><use xlink:href="#10" y="17.368"/><use xlink:href="#11" y="19.539"/><use xlink:href="#12" y="21.71"/><use xlink:href="#13" y="23.881"/><use xlink:href="#14" y="26.052"/><use xlink:href="#15" y="28.223"/><use xlink:href="#16" y="30.394"/><use xlink:href="#17" y="32.565"/><use xlink:href="#18" y="34.736"/><use xlink:href="#19" y="36.907"/><use xlink:href="#20" y="41.249"/><use xlink:href="#21" y="43.42"/><use xlink:href="#22" y="45.591"/></svg><svg x="7300"><use xlink:href="#a"/><use xlink:href="#b" x="33.996" y="47.737"/><use xlink:href="#4"/><use xlink:href="#5" y="2.171"/><use xlink:href="#6" y="4.342"/><use xlink:href="#7" y="8.684"/><use xlink:href="#8" y="10.855"/><use xlink:href="#9" y="13.026"/><use xlink:href="#10" y="17.368"/><use xlink:href="#11" y="19.539"/><use xlink:href="#12" y="21.71"/><use xlink:href="#13" y="23.881"/><use xlink:href="#14" y="26.052"/><use xlink:href="#15" y="28.223"/><use xlink:href="#16" y="30.394"/><use xlink:href="#17" y="32.565"/><use xlink:href="#18" y="34.736"/><use xlink:href="#19" y="36.907"/><use xlink:href="#20" y="41.249"/><use xlink:href="#21" y="43.42"/><use xlink:href="#22" y="45.591"/></svg><svg x="7400"><use xlink:href="#a"/><use xlink:href="#b" x="33.996" y="47.737"/><use xlink:href="#4"/><use xlink:href="#5" y="2.171"/><use xlink:href="#6" y="4.342"/><use xlink:href="#7" y="8.684"/><use xlink:href="#8" y="10.855"/><use xlink:href="#9" y="13.026"/><use xlink:href="#10" y="17.368"/><use xlink:href="#11" y="19.539"/><use xlink:href="#12" y="21.71"/><use xlink:href="#13" y="23.881"/><use xlink:href="#14" y="26.052"/><use xlink:href="#15" y="28.223"/><use xlink:href="#16" y="30.394"/><use xlink:href="#17" y="32.565"/><use xlink:href="#18" y="34.736"/><use xlink:href="#19" y="36.907"/><use xlink:href="#20" y="41.249"/><use xlink:href="#21" y="43.42"/><use xlink:href="#22" y="45.591"/></svg></svg></g></g></svg></svg>