<svg xmlns="http://www.w3.org/2000/svg" xmlns:xlink="http://www.w3.org/1999/xlink" width="1040" height="711.3"><rect width="1040" height="711.3" rx="5" ry="5" class="a"/><svg y="0%" x="0%"><circle cx="20" cy="20" r="6" fill="#ff5f58"/><circle cx="40" cy="20" r="6" fill="#ffbd2e"/><circle cx="60" cy="20" r="6" fill="#18c132"/></svg><svg height="651.3" viewBox="0 0 100 65.13" width="1000" x="15" xmlns="http://www.w3.org/2000/svg" xmlns:xlink="http://www.w3.org/1999/xlink" y="50"><style>@keyframes k{0%{transform:translateX(0)}.9%{transform:translateX(-100px)}1.8%{transform:translateX(-200px)}2.8%{transform:translateX(-300px)}3.7%{transform:translateX(-400px)}4.6%{transform:translateX(-500px)}5.6%{transform:translateX(-600px)}6.5%{transform:translateX(-700px)}7.5%{transform:translateX(-800px)}8.4%{transform:translateX(-900px)}9.3%{transform:translateX(-1000px)}10.3%{transform:translateX(-1100px)}11.2%{transform:translateX(-1200px)}12.1%{transform:translateX(-1300px)}13.1%{transform:translateX(-1400px)}14%{transform:translateX(-1500px)}15%{transform:translateX(-1600px)}15.9%{transform:translateX(-1700px)}16.8%{transform:translateX(-1800px)}17.8%{transform:translateX(-1900px)}18.7%{transform:translateX(-2000px)}19.6%{transform:translateX(-2100px)}20.6%{transform:translateX(-2200px)}21.5%{transform:translateX(-2300px)}22.5%{transform:translateX(-2400px)}23.4%{transform:translateX(-2500px)}24.3%{transform:translateX(-2600px)}25.3%{transform:translateX(-2700px)}26.2%{transform:translateX(-2800px)}27.1%{transform:translateX(-2900px)}28.1%{transform:translateX(-3000px)}29%{transform:translateX(-3100px)}30%{transform:translateX(-3200px)}30.9%{transform:translateX(-3300px)}31.8%{transform:translateX(-3400px)}32.8%{transform:translateX(-3500px)}33.7%{transform:translateX(-3600px)}34.6%{transform:translateX(-3700px)}35.6%{transform:translateX(-3800px)}36.5%{transform:translateX(-3900px)}37.5%{transform:translateX(-4000px)}38.4%{transform:translateX(-4100px)}39.3%{transform:translateX(-4200px)}40.3%{transform:translateX(-4300px)}41.2%{transform:translateX(-4400px)}42.1%{transform:translateX(-4500px)}43.1%{transform:translateX(-4600px)}44%{transform:translateX(-4700px)}45%{transform:translateX(-4800px)}45.9%{transform:translateX(-4900px)}46.8%{transform:translateX(-5000px)}47.8%{transform:translateX(-5100px)}48.7%{transform:translateX(-5200px)}49.4%{transform:translateX(-7500px)}53.3%{transform:translateX(-7600px)}57.3%{transform:translateX(-7700px)}61.2%{transform:translateX(-7800px)}65.1%{transform:translateX(-7900px)}69.1%{transform:translateX(-8000px)}73%{transform:translateX(-8100px)}76.9%{transform:translateX(-8200px)}80.9%{transform:translateX(-8300px)}84.8%{transform:translateX(-8400px)}88.8%{transform:translateX(-8500px)}92.7%{transform:translateX(-8600px)}96.6%{transform:translateX(-8700px)}to{transform:translateX(-8800px)}}.a{fill:#282d35}.f{fill:#b9c0cb;white-space:pre}</style><g font-family="Monaco,Consolas,Menlo,'Bitstream Vera Sans Mono','Powerline Symbols',monospace" font-size="1.67"><defs><symbol id="1"><text y="1.67" class="f">$</text><text x="2.004" y="1.67" class="f">or-signals</text></symbol><symbol id="2"><text y="1.67" class="f">$</text><text x="2.004" y="1.67" class="f">or-signals</text><text x="13.026" y="1.67" class="f">pkpd</text></symbol><symbol id="3"><text y="1.67" class="f">$</text><text x="2.004" y="1.67" class="f">or-signals</text><text x="13.026" y="1.67" class="f">pkpd</text><text x="18.036" y="1.67" class="f">--case</text></symbol><symbol id="4"><text y="1.67" class="f">$</text><text x="2.004" y="1.67" class="f">or-signals</text><text x="13.026" y="1.67" class="f">pkpd</text><text x="18.036" y="1.67" class="f">--case</text><text x="25.05" y="1.67" class="f">&apos;data/sample/bolus.*&apos;</text></symbol><symbol id="5"><text y="1.67" class="f">$</text><text x="2.004" y="1.67" class="f">or-signals</text><text x="13.026" y="1.67" class="f">pkpd</text><text x="18.036" y="1.67" class="f">--case</text><text x="25.05" y="1.67" class="f">&apos;data/sample/bolus.*&apos;</text><text x="47.094" y="1.67" class="f">--plot</text></symbol><symbol id="6"><text y="1.67" class="f">Research</text><text x="9.018" y="1.67" class="f">tool</text><text x="14.028" y="1.67" class="f">only.</text><text x="20.04" y="1.67" class="f">Not</text><text x="24.048" y="1.67" class="f">a</text><text x="26.052" y="1.67" class="f">clinical</text><text x="35.07" y="1.67" class="f">monitor</text><text x="43.086" y="1.67" class="f">and</text><text x="47.094" y="1.67" class="f">not</text><text x="51.102" y="1.67" class="f">a</text><text x="53.106" y="1.67" class="f">medical</text><text x="61.122" y="1.67" class="f">device.</text><text x="69.138" y="1.67" class="f">Depth-index</text><text x="81.162" y="1.67" class="f">proxies</text><text x="89.178" y="1.67" class="f">are</text><text x="93.186" y="1.67" class="f">not</text><text x="97.194" y="1.67" class="f">awa</text></symbol><symbol id="7"><text y="1.67" class="f">reness</text><text x="7.014" y="1.67" class="f">labels.</text><text x="15.03" y="1.67" class="f">This</text><text x="20.04" y="1.67" class="f">output</text><text x="27.054" y="1.67" class="f">is</text><text x="30.06" y="1.67" class="f">not</text><text x="34.068" y="1.67" class="f">clinical</text><text x="43.086" y="1.67" class="f">advice.</text></symbol><symbol id="8"><text x="50.1" y="1.67" class="f">case:</text><text x="56.112" y="1.67" class="f">bolus</text></symbol><symbol id="9"><text x="61.122" y="1.67" class="f">model:</text><text x="68.136" y="1.67" class="f">schnider-2cmt-effect-site</text></symbol><symbol id="10"><text x="93.186" y="1.67" class="f">citatio</text></symbol><symbol id="11"><text y="1.67" class="f">n:</text><text x="3.006" y="1.67" class="f">Schnider</text><text x="12.024" y="1.67" class="f">et</text><text x="15.03" y="1.67" class="f">al.,</text><text x="20.04" y="1.67" class="f">Anesthesiology</text><text x="35.07" y="1.67" class="f">1998;88:1170-82</text><text x="51.102" y="1.67" class="f">and</text><text x="55.11" y="1.67" class="f">1999;90:1502-16</text><text x="71.142" y="1.67" class="f">(2-c</text></symbol><symbol id="12"><text x="75.15" y="1.67" class="f">raw</text><text x="79.158" y="1.67" class="f">infusion</text><text x="88.176" y="1.67" class="f">peak</text><text x="93.186" y="1.67" class="f">at</text><text x="96.192" y="1.67" class="f">t=20</text></symbol><symbol id="13"><text y="1.67" class="f">s</text><text x="3.006" y="1.67" class="f">value=960.0</text><text x="15.03" y="1.67" class="f">mg/min</text></symbol><symbol id="14"><text x="21.042" y="1.67" class="f">effect-site</text><text x="33.066" y="1.67" class="f">Ce</text><text x="36.072" y="1.67" class="f">peak</text><text x="41.082" y="1.67" class="f">at</text><text x="44.088" y="1.67" class="f">t=59s</text><text x="51.102" y="1.67" class="f">value=3.921</text><text x="63.126" y="1.67" class="f">µg/ml</text></symbol><symbol id="15"><path fill="gold" d="M68.136 0h26v2.171h-26z"/><text x="68.136" y="1.67" style="white-space:pre">diverged_after_bolus: True</text></symbol><symbol id="16"><text x="94.188" y="1.67" class="f">recomp</text></symbol><symbol id="17"><text y="1.67" class="f">uted</text><text x="5.01" y="1.67" class="f">Ce</text><text x="8.016" y="1.67" class="f">matches</text><text x="16.032" y="1.67" class="f">stored:</text><text x="24.048" y="1.67" class="f">True</text></symbol><symbol id="18"><text x="28.056" y="1.67" class="f">Depth-index</text><text x="40.08" y="1.67" class="f">proxies</text><text x="48.096" y="1.67" class="f">are</text><text x="52.104" y="1.67" class="f">not</text><text x="56.112" y="1.67" class="f">awareness</text><text x="66.132" y="1.67" class="f">labels.</text><text x="74.148" y="1.67" class="f">Waveforms</text><text x="84.168" y="1.67" class="f">are</text><text x="88.176" y="1.67" class="f">synthetic.</text></symbol><symbol id="19"><text x="98.196" y="1.67" class="f">in</text></symbol><symbol id="20"><text y="1.67" class="f">fusion</text><text x="7.014" y="1.67" class="f">mg/min</text><text x="14.028" y="1.67" class="f">(*)</text><text x="18.036" y="1.67" class="f">vs</text><text x="21.042" y="1.67" class="f">Ce</text><text x="24.048" y="1.67" class="f">µg/ml</text><text x="30.06" y="1.67" class="f">(o);</text><text x="35.07" y="1.67" class="f">+</text><text x="37.074" y="1.67" class="f">marks</text><text x="43.086" y="1.67" class="f">overlap.</text><text x="52.104" y="1.67" class="f">Not</text><text x="56.112" y="1.67" class="f">a</text><text x="58.116" y="1.67" class="f">clinical</text><text x="67.134" y="1.67" class="f">plot.</text></symbol><symbol id="21"><text x="81.162" y="1.67" class="f">|</text></symbol><symbol id="22"><text x="6.012" y="1.67" class="f">******</text><text x="48.096" y="1.67" class="f">oooooo</text></symbol><symbol id="23"><text x="63.126" y="1.67" class="f">|</text></symbol><symbol id="24"><text x="22.044" y="1.67" class="f">oooooooo</text></symbol><symbol id="25"><text x="45.09" y="1.67" class="f">|</text><text x="97.194" y="1.67" class="f">ooo</text></symbol><symbol id="26"><text y="1.67" class="f">oooo</text></symbol><symbol id="27"><text x="27.054" y="1.67" class="f">|</text><text x="73.146" y="1.67" class="f">oooooo</text></symbol><symbol id="28"><text x="8.016" y="1.67" class="f">|</text><text x="48.096" y="1.67" class="f">oooooo</text></symbol><symbol id="29"><text x="90.18" y="1.67" class="f">|</text></symbol><symbol id="30"><text x="24.048" y="1.67" class="f">oooooo</text></symbol><symbol id="31"><text x="72.144" y="1.67" class="f">|</text></symbol><symbol id="32"><text x="1.002" y="1.67" class="f">ooooo</text></symbol><symbol id="33"><text x="54.108" y="1.67" class="f">|++++++++++++++++++++++++oooo</text><text x="85.17" y="1.67" class="f">***************</text></symbol><symbol id="34"><text y="1.67" class="f">***************************</text></symbol><symbol id="35"><text x="36.072" y="1.67" class="f">+---------------------------------------------------------------</text></symbol><symbol id="36"><text y="1.67" class="f">---------</text></symbol><symbol id="37"><text x="19.038" y="1.67" class="f">0s</text><text x="87.174" y="1.67" class="f">60s</text></symbol><symbol id="a"><path fill="transparent" d="M0 0h100v31H0z"/></symbol><symbol id="b"><path fill="#6f7683" d="M0 0h1.102v2.171H0z"/></symbol></defs><path class="a" d="M0 0h100v65.13H0z"/><g style="animation-duration:8.89s;animation-iteration-count:infinite;animation-name:k;animation-timing-function:steps(1,end)"><svg width="8900"><svg><use xlink:href="#a"/><use xlink:href="#b" x="-.004"/></svg><svg x="100"><use xlink:href="#a"/><use xlink:href="#b" x="1.996"/><text y="1.67" class="f">$</text></svg><svg x="200"><use xlink:href="#a"/><use xlink:href="#b" x="2.996"/><text y="1.67" class="f">$</text><text x="2.004" y="1.67" class="f">o</text></svg><svg x="300"><use xlink:href="#a"/><use xlink:href="#b" x="3.996"/><text y="1.67" class="f">$</text><text x="2.004" y="1.67" class="f">or</text></svg><svg x="400"><use xlink:href="#a"/><use xlink:href="#b" x="4.996"/><text y="1.67" class="f">$</text><text x="2.004" y="1.67" class="f">or-</text></svg><svg x="500"><use xlink:href="#a"/><use xlink:href="#b" x="5.996"/><text y="1.67" class="f">$</text><text x="2.004" y="1.67" class="f">or-s</text></svg><svg x="600"><use xlink:href="#a"/><use xlink:href="#b" x="6.996"/><text y="1.67" class="f">$</text><text x="2.004" y="1.67" class="f">or-si</text></svg><svg x="700"><use xlink:href="#a"/><use xlink:href="#b" x="7.996"/><text y="1.67" class="f">$</text><text x="2.004" y="1.67" class="f">or-sig</text></svg><svg x="800"><use xlink:href="#a"/><use xlink:href="#b" x="8.996"/><text y="1.67" class="f">$</text><text x="2.004" y="1.67" class="f">or-sign</text></svg><svg x="900"><use xlink:href="#a"/><use xlink:href="#b" x="9.996"/><text y="1.67" class="f">$</text><text x="2.004" y="1.67" class="f">or-signa</text></svg><svg x="1000"><use xlink:href="#a"/><use xlink:href="#b" x="10.996"/><text y="1.67" class="f">$</text><text x="2.004" y="1.67" class="f">or-signal</text></svg><svg x="1100"><use xlink:href="#a"/><use xlink:href="#b" x="11.996"/><use xlink:href="#1"/></svg><svg x="1200"><use xlink:href="#a"/><use xlink:href="#b" x="12.996"/><use xlink:href="#1"/></svg><svg x="1300"><use xlink:href="#a"/><use xlink:href="#b" x="13.996"/><text y="1.67" class="f">$</text><text x="2.004" y="1.67" class="f">or-signals</text><text x="13.026" y="1.67" class="f">p</text></svg><svg x="1400"><use xlink:href="#a"/><use xlink:href="#b" x="14.996"/><text y="1.67" class="f">$</text><text x="2.004" y="1.67" class="f">or-signals</text><text x="13.026" y="1.67" class="f">pk</text></svg><svg x="1500"><use xlink:href="#a"/><use xlink:href="#b" x="15.996"/><text y="1.67" class="f">$</text><text x="2.004" y="1.67" class="f">or-signals</text><text x="13.026" y="1.67" class="f">pkp</text></svg><svg x="1600"><use xlink:href="#a"/><use xlink:href="#b" x="16.996"/><use xlink:href="#2"/></svg><svg x="1700"><use xlink:href="#a"/><use xlink:href="#b" x="17.996"/><use xlink:href="#2"/></svg><svg x="1800"><use xlink:href="#a"/><use xlink:href="#b" x="18.996"/><text y="1.67" class="f">$</text><text x="2.004" y="1.67" class="f">or-signals</text><text x="13.026" y="1.67" class="f">pkpd</text><text x="18.036" y="1.67" class="f">-</text></svg><svg x="1900"><use xlink:href="#a"/><use xlink:href="#b" x="19.996"/><text y="1.67" class="f">$</text><text x="2.004" y="1.67" class="f">or-signals</text><text x="13.026" y="1.67" class="f">pkpd</text><text x="18.036" y="1.67" class="f">--</text></svg><svg x="2000"><use xlink:href="#a"/><use xlink:href="#b" x="20.996"/><text y="1.67" class="f">$</text><text x="2.004" y="1.67" class="f">or-signals</text><text x="13.026" y="1.67" class="f">pkpd</text><text x="18.036" y="1.67" class="f">--c</text></svg><svg x="2100"><use xlink:href="#a"/><use xlink:href="#b" x="21.996"/><text y="1.67" class="f">$</text><text x="2.004" y="1.67" class="f">or-signals</text><text x="13.026" y="1.67" class="f">pkpd</text><text x="18.036" y="1.67" class="f">--ca</text></svg><svg x="2200"><use xlink:href="#a"/><use xlink:href="#b" x="22.996"/><text y="1.67" class="f">$</text><text x="2.004" y="1.67" class="f">or-signals</text><text x="13.026" y="1.67" class="f">pkpd</text><text x="18.036" y="1.67" class="f">--cas</text></svg><svg x="2300"><use xlink:href="#a"/><use xlink:href="#b" x="23.996"/><use xlink:href="#3"/></svg><svg x="2400"><use xlink:href="#a"/><use xlink:href="#b" x="24.996"/><use xlink:href="#3"/></svg><svg x="2500"><use xlink:href="#a"/><use xlink:href="#b" x="25.996"/><text y="1.67" class="f">$</text><text x="2.004" y="1.67" class="f">or-signals</text><text x="13.026" y="1.67" class="f">pkpd</text><text x="18.036" y="1.67" class="f">--case</text><text x="25.05" y="1.67" class="f">&apos;</text></svg><svg x="2600"><use xlink:href="#a"/><use xlink:href="#b" x="26.996"/><text y="1.67" class="f">$</text><text x="2.004" y="1.67" class="f">or-signals</text><text x="13.026" y="1.67" class="f">pkpd</text><text x="18.036" y="1.67" class="f">--case</text><text x="25.05" y="1.67" class="f">&apos;d</text></svg><svg x="2700"><use xlink:href="#a"/><use xlink:href="#b" x="27.996"/><text y="1.67" class="f">$</text><text x="2.004" y="1.67" class="f">or-signals</text><text x="13.026" y="1.67" class="f">pkpd</text><text x="18.036" y="1.67" class="f">--case</text><text x="25.05" y="1.67" class="f">&apos;da</text></svg><svg x="2800"><use xlink:href="#a"/><use xlink:href="#b" x="28.996"/><text y="1.67" class="f">$</text><text x="2.004" y="1.67" class="f">or-signals</text><text x="13.026" y="1.67" class="f">pkpd</text><text x="18.036" y="1.67" class="f">--case</text><text x="25.05" y="1.67" class="f">&apos;dat</text></svg><svg x="2900"><use xlink:href="#a"/><use xlink:href="#b" x="29.996"/><text y="1.67" class="f">$</text><text x="2.004" y="1.67" class="f">or-signals</text><text x="13.026" y="1.67" class="f">pkpd</text><text x="18.036" y="1.67" class="f">--case</text><text x="25.05" y="1.67" class="f">&apos;data</text></svg><svg x="3000"><use xlink:href="#a"/><use xlink:href="#b" x="30.996"/><text y="1.67" class="f">$</text><text x="2.004" y="1.67" class="f">or-signals</text><text x="13.026" y="1.67" class="f">pkpd</text><text x="18.036" y="1.67" class="f">--case</text><text x="25.05" y="1.67" class="f">&apos;data/</text></svg><svg x="3100"><use xlink:href="#a"/><use xlink:href="#b" x="31.996"/><text y="1.67" class="f">$</text><text x="2.004" y="1.67" class="f">or-signals</text><text x="13.026" y="1.67" class="f">pkpd</text><text x="18.036" y="1.67" class="f">--case</text><text x="25.05" y="1.67" class="f">&apos;data/s</text></svg><svg x="3200"><use xlink:href="#a"/><use xlink:href="#b" x="32.996"/><text y="1.67" class="f">$</text><text x="2.004" y="1.67" class="f">or-signals</text><text x="13.026" y="1.67" class="f">pkpd</text><text x="18.036" y="1.67" class="f">--case</text><text x="25.05" y="1.67" class="f">&apos;data/sa</text></svg><svg x="3300"><use xlink:href="#a"/><use xlink:href="#b" x="33.996"/><text y="1.67" class="f">$</text><text x="2.004" y="1.67" class="f">or-signals</text><text x="13.026" y="1.67" class="f">pkpd</text><text x="18.036" y="1.67" class="f">--case</text><text x="25.05" y="1.67" class="f">&apos;data/sam</text></svg><svg x="3400"><use xlink:href="#a"/><use xlink:href="#b" x="34.996"/><text y="1.67" class="f">$</text><text x="2.004" y="1.67" class="f">or-signals</text><text x="13.026" y="1.67" class="f">pkpd</text><text x="18.036" y="1.67" class="f">--case</text><text x="25.05" y="1.67" class="f">&apos;data/samp</text></svg><svg x="3500"><use xlink:href="#a"/><use xlink:href="#b" x="35.996"/><text y="1.67" class="f">$</text><text x="2.004" y="1.67" class="f">or-signals</text><text x="13.026" y="1.67" class="f">pkpd</text><text x="18.036" y="1.67" class="f">--case</text><text x="25.05" y="1.67" class="f">&apos;data/sampl</text></svg><svg x="3600"><use xlink:href="#a"/><use xlink:href="#b" x="36.996"/><text y="1.67" class="f">$</text><text x="2.004" y="1.67" class="f">or-signals</text><text x="13.026" y="1.67" class="f">pkpd</text><text x="18.036" y="1.67" class="f">--case</text><text x="25.05" y="1.67" class="f">&apos;data/sample</text></svg><svg x="3700"><use xlink:href="#a"/><use xlink:href="#b" x="37.996"/><text y="1.67" class="f">$</text><text x="2.004" y="1.67" class="f">or-signals</text><text x="13.026" y="1.67" class="f">pkpd</text><text x="18.036" y="1.67" class="f">--case</text><text x="25.05" y="1.67" class="f">&apos;data/sample/</text></svg><svg x="3800"><use xlink:href="#a"/><use xlink:href="#b" x="38.996"/><text y="1.67" class="f">$</text><text x="2.004" y="1.67" class="f">or-signals</text><text x="13.026" y="1.67" class="f">pkpd</text><text x="18.036" y="1.67" class="f">--case</text><text x="25.05" y="1.67" class="f">&apos;data/sample/b</text></svg><svg x="3900"><use xlink:href="#a"/><use xlink:href="#b" x="39.996"/><text y="1.67" class="f">$</text><text x="2.004" y="1.67" class="f">or-signals</text><text x="13.026" y="1.67" class="f">pkpd</text><text x="18.036" y="1.67" class="f">--case</text><text x="25.05" y="1.67" class="f">&apos;data/sample/bo</text></svg><svg x="4000"><use xlink:href="#a"/><use xlink:href="#b" x="40.996"/><text y="1.67" class="f">$</text><text x="2.004" y="1.67" class="f">or-signals</text><text x="13.026" y="1.67" class="f">pkpd</text><text x="18.036" y="1.67" class="f">--case</text><text x="25.05" y="1.67" class="f">&apos;data/sample/bol</text></svg><svg x="4100"><use xlink:href="#a"/><use xlink:href="#b" x="41.996"/><text y="1.67" class="f">$</text><text x="2.004" y="1.67" class="f">or-signals</text><text x="13.026" y="1.67" class="f">pkpd</text><text x="18.036" y="1.67" class="f">--case</text><text x="25.05" y="1.67" class="f">&apos;data/sample/bolu</text></svg><svg x="4200"><use xlink:href="#a"/><use xlink:href="#b" x="42.996"/><text y="1.67" class="f">$</text><text x="2.004" y="1.67" class="f">or-signals</text><text x="13.026" y="1.67" class="f">pkpd</text><text x="18.036" y="1.67" class="f">--case</text><text x="25.05" y="1.67" class="f">&apos;data/sample/bolus</text></svg><svg x="4300"><use xlink:href="#a"/><use xlink:href="#b" x="43.996"/><text y="1.67" class="f">$</text><text x="2.004" y="1.67" class="f">or-signals</text><text x="13.026" y="1.67" class="f">pkpd</text><text x="18.036" y="1.67" class="f">--case</text><text x="25.05" y="1.67" class="f">&apos;data/sample/bolus.</text></svg><svg x="4400"><use xlink:href="#a"/><use xlink:href="#b" x="44.996"/><text y="1.67" class="f">$</text><text x="2.004" y="1.67" class="f">or-signals</text><text x="13.026" y="1.67" class="f">pkpd</text><text x="18.036" y="1.67" class="f">--case</text><text x="25.05" y="1.67" class="f">&apos;data/sample/bolus.*</text></svg><svg x="4500"><use xlink:href="#a"/><use xlink:href="#b" x="45.996"/><use xlink:href="#4"/></svg><svg x="4600"><use xlink:href="#a"/><use xlink:href="#b" x="46.996"/><use xlink:href="#4"/></svg><svg x="4700"><use xlink:href="#a"/><use xlink:href="#b" x="47.996"/><text y="1.67" class="f">$</text><text x="2.004" y="1.67" class="f">or-signals</text><text x="13.026" y="1.67" class="f">pkpd</text><text x="18.036" y="1.67" class="f">--case</text><text x="25.05" y="1.67" class="f">&apos;data/sample/bolus.*&apos;</text><text x="47.094" y="1.67" class="f">-</text></svg><svg x="4800"><use xlink:href="#a"/><use xlink:href="#b" x="48.996"/><text y="1.67" class="f">$</text><text x="2.004" y="1.67" class="f">or-signals</text><text x="13.026" y="1.67" class="f">pkpd</text><text x="18.036" y="1.67" class="f">--case</text><text x="25.05" y="1.67" class="f">&apos;data/sample/bolus.*&apos;</text><text x="47.094" y="1.67" class="f">--</text></svg><svg x="4900"><use xlink:href="#a"/><use xlink:href="#b" x="49.996"/><text y="1.67" class="f">$</text><text x="2.004" y="1.67" class="f">or-signals</text><text x="13.026" y="1.67" class="f">pkpd</text><text x="18.036" y="1.67" class="f">--case</text><text x="25.05" y="1.67" class="f">&apos;data/sample/bolus.*&apos;</text><text x="47.094" y="1.67" class="f">--p</text></svg><svg x="5000"><use xlink:href="#a"/><use xlink:href="#b" x="50.996"/><text y="1.67" class="f">$</text><text x="2.004" y="1.67" class="f">or-signals</text><text x="13.026" y="1.67" class="f">pkpd</text><text x="18.036" y="1.67" class="f">--case</text><text x="25.05" y="1.67" class="f">&apos;data/sample/bolus.*&apos;</text><text x="47.094" y="1.67" class="f">--pl</text></svg><svg x="5100"><use xlink:href="#a"/><use xlink:href="#b" x="51.996"/><text y="1.67" class="f">$</text><text x="2.004" y="1.67" class="f">or-signals</text><text x="13.026" y="1.67" class="f">pkpd</text><text x="18.036" y="1.67" class="f">--case</text><text x="25.05" y="1.67" class="f">&apos;data/sample/bolus.*&apos;</text><text x="47.094" y="1.67" class="f">--plo</text></svg><svg x="5200"><use xlink:href="#a"/><use xlink:href="#b" x="52.996"/><use xlink:href="#5"/></svg><svg x="5300"><use xlink:href="#a"/><use xlink:href="#b" x="-.004" y="2.146"/><use xlink:href="#5"/></svg><svg x="5400"><use xlink:href="#a"/><use xlink:href="#b" x="49.996" y="6.488"/><use xlink:href="#5"/><use xlink:href="#6" y="2.171"/><use xlink:href="#7" y="4.342"/></svg><svg x="5500"><use xlink:href="#a"/><use xlink:href="#b" x="49.996" y="8.659"/><use xlink:href="#5"/><use xlink:href="#6" y="2.171"/><use xlink:href="#7" y="4.342"/></svg><svg x="5600"><use xlink:href="#a"/><use xlink:href="#b" x="60.996" y="10.83"/><use xlink:href="#5"/><use xlink:href="#6" y="2.171"/><use xlink:href="#7" y="4.342"/><use xlink:href="#8" y="8.684"/></svg><svg x="5700"><use xlink:href="#a"/><use xlink:href="#b" x="92.996" y="13.001"/><use xlink:href="#5"/><use xlink:href="#6" y="2.171"/><use xlink:href="#7" y="4.342"/><use xlink:href="#8" y="8.684"/><use xlink:href="#9" y="10.855"/></svg><svg x="5800"><use xlink:href="#a"/><use xlink:href="#b" x="74.996" y="17.343"/><use xlink:href="#5"/><use xlink:href="#6" y="2.171"/><use xlink:href="#7" y="4.342"/><use xlink:href="#8" y="8.684"/><use xlink:href="#9" y="10.855"/><use xlink:href="#10" y="13.026"/><use xlink:href="#11" y="15.197"/></svg><svg x="5900"><use xlink:href="#a"/><use xlink:href="#b" x="20.996" y="21.685"/><use xlink:href="#5"/><use xlink:href="#6" y="2.171"/><use xlink:href="#7" y="4.342"/><use xlink:href="#8" y="8.684"/><use xlink:href="#9" y="10.855"/><use xlink:href="#10" y="13.026"/><use xlink:href="#11" y="15.197"/><use xlink:href="#12" y="17.368"/><use xlink:href="#13" y="19.539"/></svg><svg x="6000"><use xlink:href="#a"/><use xlink:href="#b" x="67.996" y="23.856"/><use xlink:href="#5"/><use xlink:href="#6" y="2.171"/><use xlink:href="#7" y="4.342"/><use xlink:href="#8" y="8.684"/><use xlink:href="#9" y="10.855"/><use xlink:href="#10" y="13.026"/><use xlink:href="#11" y="15.197"/><use xlink:href="#12" y="17.368"/><use xlink:href="#13" y="19.539"/><use xlink:href="#14" y="21.71"/></svg><svg x="6100"><use xlink:href="#a"/><use xlink:href="#b" x="93.996" y="26.027"/><use xlink:href="#5"/><use xlink:href="#6" y="2.171"/><use xlink:href="#7" y="4.342"/><use xlink:href="#8" y="8.684"/><use xlink:href="#9" y="10.855"/><use xlink:href="#10" y="13.026"/><use xlink:href="#11" y="15.197"/><use xlink:href="#12" y="17.368"/><use xlink:href="#13" y="19.539"/><use xlink:href="#14" y="21.71"/><use xlink:href="#15" y="23.881"/></svg><svg x="6200"><use xlink:href="#a"/><use xlink:href="#b" x="27.996" y="30.369"/><use xlink:href="#5"/><use xlink:href="#6" y="2.171"/><use xlink:href="#7" y="4.342"/><use xlink:href="#8" y="8.684"/><use xlink:href="#9" y="10.855"/><use xlink:href="#10" y="13.026"/><use xlink:href="#11" y="15.197"/><use xlink:href="#12" y="17.368"/><use xlink:href="#13" y="19.539"/><use xlink:href="#14" y="21.71"/><use xlink:href="#15" y="23.881"/><use xlink:href="#16" y="26.052"/><use xlink:href="#17" y="28.223"/></svg><svg x="6300"><use xlink:href="#a"/><use xlink:href="#b" x="97.996" y="32.54"/><use xlink:href="#5"/><use xlink:href="#6" y="2.171"/><use xlink:href="#7" y="4.342"/><use xlink:href="#8" y="8.684"/><use xlink:href="#9" y="10.855"/><use xlink:href="#10" y="13.026"/><use xlink:href="#11" y="15.197"/><use xlink:href="#12" y="17.368"/><use xlink:href="#13" y="19.539"/><use xlink:href="#14" y="21.71"/><use xlink:href="#15" y="23.881"/><use xlink:href="#16" y="26.052"/><use xlink:href="#17" y="28.223"/><use xlink:href="#18" y="30.394"/></svg><svg x="6400"><use xlink:href="#a"/><use xlink:href="#b" x="97.996" y="34.711"/><use xlink:href="#5"/><use xlink:href="#6" y="2.171"/><use xlink:href="#7" y="4.342"/><use xlink:href="#8" y="8.684"/><use xlink:href="#9" y="10.855"/><use xlink:href="#10" y="13.026"/><use xlink:href="#11" y="15.197"/><use xlink:href="#12" y="17.368"/><use xlink:href="#13" y="19.539"/><use xlink:href="#14" y="21.71"/><use xlink:href="#15" y="23.881"/><use xlink:href="#16" y="26.052"/><use xlink:href="#17" y="28.223"/><use xlink:href="#18" y="30.394"/></svg><svg x="6500"><use xlink:href="#a"/><use xlink:href="#b" x="71.996" y="39.053"/><use xlink:href="#5"/><use xlink:href="#6" y="2.171"/><use xlink:href="#7" y="4.342"/><use xlink:href="#8" y="8.684"/><use xlink:href="#9" y="10.855"/><use xlink:href="#10" y="13.026"/><use xlink:href="#11" y="15.197"/><use xlink:href="#12" y="17.368"/><use xlink:href="#13" y="19.539"/><use xlink:href="#14" y="21.71"/><use xlink:href="#15" y="23.881"/><use xlink:href="#16" y="26.052"/><use xlink:href="#17" y="28.223"/><use xlink:href="#18" y="30.394"/><use xlink:href="#19" y="34.736"/><use xlink:href="#20" y="36.907"/></svg><svg x="6600"><use xlink:href="#a"/><use xlink:href="#b" x="53.996" y="43.395"/><use xlink:href="#5"/><use xlink:href="#6" y="2.171"/><use xlink:href="#7" y="4.342"/><use xlink:href="#8" y="8.684"/><use xlink:href="#9" y="10.855"/><use xlink:href="#10" y="13.026"/><use xlink:href="#11" y="15.197"/><use xlink:href="#12" y="17.368"/><use xlink:href="#13" y="19.539"/><use xlink:href="#14" y="21.71"/><use xlink:href="#15" y="23.881"/><use xlink:href="#16" y="26.052"/><use xlink:href="#17" y="28.223"/><use xlink:href="#18" y="30.394"/><use xlink:href="#19" y="34.736"/><use xlink:href="#20" y="36.907"/><use xlink:href="#21" y="39.078"/><use xlink:href="#22" y="41.249"/></svg><svg x="6700"><use xlink:href="#a"/><use xlink:href="#b" x="35.996" y="47.737"/><use xlink:href="#5"/><use xlink:href="#6" y="2.171"/><use xlink:href="#7" y="4.342"/><use xlink:href="#8" y="8.684"/><use xlink:href="#9" y="10.855"/><use xlink:href="#10" y="13.026"/><use xlink:href="#11" y="15.197"/><use xlink:href="#12" y="17.368"/><use xlink:href="#13" y="19.539"/><use xlink:href="#14" y="21.71"/><use xlink:href="#15" y="23.881"/><use xlink:href="#16" y="26.052"/><use xlink:href="#17" y="28.223"/><use xlink:href="#18" y="30.394"/><use xlink:href="#19" y="34.736"/><use xlink:href="#20" y="36.907"/><use xlink:href="#21" y="39.078"/><use xlink:href="#22" y="41.249"/><use xlink:href="#23" y="43.42"/><use xlink:href="#24" y="45.591"/></svg><svg x="6800"><use xlink:href="#a"/><use xlink:href="#b" x="17.996" y="52.079"/><use xlink:href="#5"/><use xlink:href="#6" y="2.171"/><use xlink:href="#7" y="4.342"/><use xlink:href="#8" y="8.684"/><use xlink:href="#9" y="10.855"/><use xlink:href="#10" y="13.026"/><use xlink:href="#11" y="15.197"/><use xlink:href="#12" y="17.368"/><use xlink:href="#13" y="19.539"/><use xlink:href="#14" y="21.71"/><use xlink:href="#15" y="23.881"/><use xlink:href="#16" y="26.052"/><use xlink:href="#17" y="28.223"/><use xlink:href="#18" y="30.394"/><use xlink:href="#19" y="34.736"/><use xlink:href="#20" y="36.907"/><use xlink:href="#21" y="39.078"/><use xlink:href="#22" y="41.249"/><use xlink:href="#23" y="43.42"/><use xlink:href="#24" y="45.591"/><use xlink:href="#25" y="47.762"/><use xlink:href="#26" y="49.933"/></svg><svg x="6900"><use xlink:href="#a"/><use xlink:href="#b" x="98.996" y="54.25"/><use xlink:href="#5"/><use xlink:href="#6" y="2.171"/><use xlink:href="#7" y="4.342"/><use xlink:href="#8" y="8.684"/><use xlink:href="#9" y="10.855"/><use xlink:href="#10" y="13.026"/><use xlink:href="#11" y="15.197"/><use xlink:href="#12" y="17.368"/><use xlink:href="#13" y="19.539"/><use xlink:href="#14" y="21.71"/><use xlink:href="#15" y="23.881"/><use xlink:href="#16" y="26.052"/><use xlink:href="#17" y="28.223"/><use xlink:href="#18" y="30.394"/><use xlink:href="#19" y="34.736"/><use xlink:href="#20" y="36.907"/><use xlink:href="#21" y="39.078"/><use xlink:href="#22" y="41.249"/><use xlink:href="#23" y="43.42"/><use xlink:href="#24" y="45.591"/><use xlink:href="#25" y="47.762"/><use xlink:href="#26" y="49.933"/><use xlink:href="#27" y="52.104"/></svg><svg x="7000"><use xlink:href="#a"/><use xlink:href="#b" x="80.996" y="58.592"/><use xlink:href="#5"/><use xlink:href="#6" y="2.171"/><use xlink:href="#7" y="4.342"/><use xlink:href="#8" y="8.684"/><use xlink:href="#9" y="10.855"/><use xlink:href="#10" y="13.026"/><use xlink:href="#11" y="15.197"/><use xlink:href="#12" y="17.368"/><use xlink:href="#13" y="19.539"/><use xlink:href="#14" y="21.71"/><use xlink:href="#15" y="23.881"/><use xlink:href="#16" y="26.052"/><use xlink:href="#17" y="28.223"/><use xlink:href="#18" y="30.394"/><use xlink:href="#19" y="34.736"/><use xlink:href="#20" y="36.907"/><use xlink:href="#21" y="39.078"/><use xlink:href="#22" y="41.249"/><use xlink:href="#23" y="43.42"/><use xlink:href="#24" y="45.591"/><use xlink:href="#25" y="47.762"/><use xlink:href="#26" y="49.933"/><use xlink:href="#27" y="52.104"/><use xlink:href="#28" y="56.446"/></svg><svg x="7100"><use xlink:href="#a"/><use xlink:href="#b" x="62.996" y="62.934"/><use xlink:href="#5"/><use xlink:href="#6" y="2.171"/><use xlink:href="#7" y="4.342"/><use xlink:href="#8" y="8.684"/><use xlink:href="#9" y="10.855"/><use xlink:href="#10" y="13.026"/><use xlink:href="#11" y="15.197"/><use xlink:href="#12" y="17.368"/><use xlink:href="#13" y="19.539"/><use xlink:href="#14" y="21.71"/><use xlink:href="#15" y="23.881"/><use xlink:href="#16" y="26.052"/><use xlink:href="#17" y="28.223"/><use xlink:href="#18" y="30.394"/><use xlink:href="#19" y="34.736"/><use xlink:href="#20" y="36.907"/><use xlink:href="#21" y="39.078"/><use xlink:href="#22" y="41.249"/><use xlink:href="#23" y="43.42"/><use xlink:href="#24" y="45.591"/><use xlink:href="#25" y="47.762"/><use xlink:href="#26" y="49.933"/><use xlink:href="#27" y="52.104"/><use xlink:href="#28" y="56.446"/><use xlink:href="#29" y="58.617"/><use xlink:href="#30" y="60.788"/></svg><svg x="7200"><use xlink:href="#a"/><use xlink:href="#b" x="44.996" y="65.105"/><use xlink:href="#6"/><use xlink:href="#7" y="2.171"/><use xlink:href="#8" y="6.513"/><use xlink:href="#9" y="8.684"/><use xlink:href="#10" y="10.855"/><use xlink:href="#11" y="13.026"/><use xlink:href="#12" y="15.197"/><use xlink:href="#13" y="17.368"/><use xlink:href="#14" y="19.539"/><use xlink:href="#15" y="21.71"/><use xlink:href="#16" y="23.881"/><use xlink:href="#17" y="26.052"/><use xlink:href="#18" y="28.223"/><use xlink:href="#19" y="32.565"/><use xlink:href="#20" y="34.736"/><use xlink:href="#21" y="36.907"/><use xlink:href="#22" y="39.078"/><use xlink:href="#23" y="41.249"/><use xlink:href="#24" y="43.42"/><use xlink:href="#25" y="45.591"/><use xlink:href="#26" y="47.762"/><use xlink:href="#27" y="49.933"/><use xlink:href="#28" y="54.275"/><use xlink:href="#29" y="56.446"/><use xlink:href="#30" y="58.617"/><use xlink:href="#31" y="60.788"/><use xlink:href="#32" y="62.959"/></svg><svg x="7300"><use xlink:href="#a"/><use xlink:href="#b" x="26.996" y="65.105"/><use xlink:href="#8" y="2.171"/><use xlink:href="#9" y="4.342"/><use xlink:href="#10" y="6.513"/><use xlink:href="#11" y="8.684"/><use xlink:href="#12" y="10.855"/><use xlink:href="#13" y="13.026"/><use xlink:href="#14" y="15.197"/><use xlink:href="#15" y="17.368"/><use xlink:href="#16" y="19.539"/><use xlink:href="#17" y="21.71"/><use xlink:href="#18" y="23.881"/><use xlink:href="#19" y="28.223"/><use xlink:href="#20" y="30.394"/><use xlink:href="#21" y="32.565"/><use xlink:href="#22" y="34.736"/><use xlink:href="#23" y="36.907"/><use xlink:href="#24" y="39.078"/><use xlink:href="#25" y="41.249"/><use xlink:href="#26" y="43.42"/><use xlink:href="#27" y="45.591"/><use xlink:href="#28" y="49.933"/><use xlink:href="#29" y="52.104"/><use xlink:href="#30" y="54.275"/><use xlink:href="#31" y="56.446"/><use xlink:href="#32" y="58.617"/><use xlink:href="#33" y="60.788"/><use xlink:href="#34" y="62.959"/></svg><svg x="7400"><use xlink:href="#a"/><use xlink:href="#b" x="8.996" y="65.105"/><use xlink:href="#9"/><use xlink:href="#10" y="2.171"/><use xlink:href="#11" y="4.342"/><use xlink:href="#12" y="6.513"/><use xlink:href="#13" y="8.684"/><use xlink:href="#14" y="10.855"/><use xlink:href="#15" y="13.026"/><use xlink:href="#16" y="15.197"/><use xlink:href="#17" y="17.368"/><use xlink:href="#18" y="19.539"/><use xlink:href="#19" y="23.881"/><use xlink:href="#20" y="26.052"/><use xlink:href="#21" y="28.223"/><use xlink:href="#22" y="30.394"/><use xlink:href="#23" y="32.565"/><use xlink:href="#24" y="34.736"/><use xlink:href="#25" y="36.907"/><use xlink:href="#26" y="39.078"/><use xlink:href="#27" y="41.249"/><use xlink:href="#28" y="45.591"/><use xlink:href="#29" y="47.762"/><use xlink:href="#30" y="49.933"/><use xlink:href="#31" y="52.104"/><use xlink:href="#32" y="54.275"/><use xlink:href="#33" y="56.446"/><use xlink:href="#34" y="58.617"/><use xlink:href="#35" y="60.788"/><use xlink:href="#36" y="62.959"/></svg><svg x="7500"><use xlink:href="#a"/><use xlink:href="#b" x="89.996" y="65.105"/><use xlink:href="#10"/><use xlink:href="#11" y="2.171"/><use xlink:href="#12" y="4.342"/><use xlink:href="#13" y="6.513"/><use xlink:href="#14" y="8.684"/><use xlink:href="#15" y="10.855"/><use xlink:href="#16" y="13.026"/><use xlink:href="#17" y="15.197"/><use xlink:href="#18" y="17.368"/><use xlink:href="#19" y="21.71"/><use xlink:href="#20" y="23.881"/><use xlink:href="#21" y="26.052"/><use xlink:href="#22" y="28.223"/><use xlink:href="#23" y="30.394"/><use xlink:href="#24" y="32.565"/><use xlink:href="#25" y="34.736"/><use xlink:href="#26" y="36.907"/><use xlink:href="#27" y="39.078"/><use xlink:href="#28" y="43.42"/><use xlink:href="#29" y="45.591"/><use xlink:href="#30" y="47.762"/><use xlink:href="#31" y="49.933"/><use xlink:href="#32" y="52.104"/><use xlink:href="#33" y="54.275"/><use xlink:href="#34" y="56.446"/><use xlink:href="#35" y="58.617"/><use xlink:href="#36" y="60.788"/><use xlink:href="#37" y="62.959"/></svg><svg x="7600"><use xlink:href="#a"/><use xlink:href="#b" x="89.996" y="65.105"/><use xlink:href="#10"/><use xlink:href="#11" y="2.171"/><use xlink:href="#12" y="4.342"/><use xlink:href="#13" y="6.513"/><use xlink:href="#14" y="8.684"/><use xlink:href="#15" y="10.855"/><use xlink:href="#16" y="13.026"/><use xlink:href="#17" y="15.197"/><use xlink:href="#18" y="17.368"/><use xlink:href="#19" y="21.71"/><use xlink:href="#20" y="23.881"/><use xlink:href="#21" y="26.052"/><use xlink:href="#22" y="28.223"/><use xlink:href="#23" y="30.394"/><use xlink:href="#24" y="32.565"/><use xlink:href="#25" y="34.736"/><use xlink:href="#26" y="36.907"/><use xlink:href="#27" y="39.078"/><use xlink:href="#28" y="43.42"/><use xlink:href="#29" y="45.591"/><use xlink:href="#30" y="47.762"/><use xlink:href="#31" y="49.933"/><use xlink:href="#32" y="52.104"/><use xlink:href="#33" y="54.275"/><use xlink:href="#34" y="56.446"/><use xlink:href="#35" y="58.617"/><use xlink:href="#36" y="60.788"/><use xlink:href="#37" y="62.959"/></svg><svg x="7700"><use xlink:href="#a"/><use xlink:href="#b" x="89.996" y="65.105"/><use xlink:href="#10"/><use xlink:href="#11" y="2.171"/><use xlink:href="#12" y="4.342"/><use xlink:href="#13" y="6.513"/><use xlink:href="#14" y="8.684"/><use xlink:href="#15" y="10.855"/><use xlink:href="#16" y="13.026"/><use xlink:href="#17" y="15.197"/><use xlink:href="#18" y="17.368"/><use xlink:href="#19" y="21.71"/><use xlink:href="#20" y="23.881"/><use xlink:href="#21" y="26.052"/><use xlink:href="#22" y="28.223"/><use xlink:href="#23" y="30.394"/><use xlink:href="#24" y="32.565"/><use xlink:href="#25" y="34.736"/><use xlink:href="#26" y="36.907"/><use xlink:href="#27" y="39.078"/><use xlink:href="#28" y="43.42"/><use xlink:href="#29" y="45.591"/><use xlink:href="#30" y="47.762"/><use xlink:href="#31" y="49.933"/><use xlink:href="#32" y="52.104"/><use xlink:href="#33" y="54.275"/><use xlink:href="#34" y="56.446"/><use xlink:href="#35" y="58.617"/><use xlink:href="#36" y="60.788"/><use xlink:href="#37" y="62.959"/></svg><svg x="7800"><use xlink:href="#a"/><use xlink:href="#b" x="89.996" y="65.105"/><use xlink:href="#10"/><use xlink:href="#11" y="2.171"/><use xlink:href="#12" y="4.342"/><use xlink:href="#13" y="6.513"/><use xlink:href="#14" y="8.684"/><use xlink:href="#15" y="10.855"/><use xlink:href="#16" y="13.026"/><use xlink:href="#17" y="15.197"/><use xlink:href="#18" y="17.368"/><use xlink:href="#19" y="21.71"/><use xlink:href="#20" y="23.881"/><use xlink:href="#21" y="26.052"/><use xlink:href="#22" y="28.223"/><use xlink:href="#23" y="30.394"/><use xlink:href="#24" y="32.565"/><use xlink:href="#25" y="34.736"/><use xlink:href="#26" y="36.907"/><use xlink:href="#27" y="39.078"/><use xlink:href="#28" y="43.42"/><use xlink:href="#29" y="45.591"/><use xlink:href="#30" y="47.762"/><use xlink:href="#31" y="49.933"/><use xlink:href="#32" y="52.104"/><use xlink:href="#33" y="54.275"/><use xlink:href="#34" y="56.446"/><use xlink:href="#35" y="58.617"/><use xlink:href="#36" y="60.788"/><use xlink:href="#37" y="62.959"/></svg><svg x="7900"><use xlink:href="#a"/><use xlink:href="#b" x="89.996" y="65.105"/><use xlink:href="#10"/><use xlink:href="#11" y="2.171"/><use xlink:href="#12" y="4.342"/><use xlink:href="#13" y="6.513"/><use xlink:href="#14" y="8.684"/><use xlink:href="#15" y="10.855"/><use xlink:href="#16" y="13.026"/><use xlink:href="#17" y="15.197"/><use xlink:href="#18" y="17.368"/><use xlink:href="#19" y="21.71"/><use xlink:href="#20" y="23.881"/><use xlink:href="#21" y="26.052"/><use xlink:href="#22" y="28.223"/><use xlink:href="#23" y="30.394"/><use xlink:href="#24" y="32.565"/><use xlink:href="#25" y="34.736"/><use xlink:href="#26" y="36.907"/><use xlink:href="#27" y="39.078"/><use xlink:href="#28" y="43.42"/><use xlink:href="#29" y="45.591"/><use xlink:href="#30" y="47.762"/><use xlink:href="#31" y="49.933"/><use xlink:href="#32" y="52.104"/><use xlink:href="#33" y="54.275"/><use xlink:href="#34" y="56.446"/><use xlink:href="#35" y="58.617"/><use xlink:href="#36" y="60.788"/><use xlink:href="#37" y="62.959"/></svg><svg x="8000"><use xlink:href="#a"/><use xlink:href="#b" x="89.996" y="65.105"/><use xlink:href="#10"/><use xlink:href="#11" y="2.171"/><use xlink:href="#12" y="4.342"/><use xlink:href="#13" y="6.513"/><use xlink:href="#14" y="8.684"/><use xlink:href="#15" y="10.855"/><use xlink:href="#16" y="13.026"/><use xlink:href="#17" y="15.197"/><use xlink:href="#18" y="17.368"/><use xlink:href="#19" y="21.71"/><use xlink:href="#20" y="23.881"/><use xlink:href="#21" y="26.052"/><use xlink:href="#22" y="28.223"/><use xlink:href="#23" y="30.394"/><use xlink:href="#24" y="32.565"/><use xlink:href="#25" y="34.736"/><use xlink:href="#26" y="36.907"/><use xlink:href="#27" y="39.078"/><use xlink:href="#28" y="43.42"/><use xlink:href="#29" y="45.591"/><use xlink:href="#30" y="47.762"/><use xlink:href="#31" y="49.933"/><use xlink:href="#32" y="52.104"/><use xlink:href="#33" y="54.275"/><use xlink:href="#34" y="56.446"/><use xlink:href="#35" y="58.617"/><use xlink:href="#36" y="60.788"/><use xlink:href="#37" y="62.959"/></svg><svg x="8100"><use xlink:href="#a"/><use xlink:href="#b" x="89.996" y="65.105"/><use xlink:href="#10"/><use xlink:href="#11" y="2.171"/><use xlink:href="#12" y="4.342"/><use xlink:href="#13" y="6.513"/><use xlink:href="#14" y="8.684"/><use xlink:href="#15" y="10.855"/><use xlink:href="#16" y="13.026"/><use xlink:href="#17" y="15.197"/><use xlink:href="#18" y="17.368"/><use xlink:href="#19" y="21.71"/><use xlink:href="#20" y="23.881"/><use xlink:href="#21" y="26.052"/><use xlink:href="#22" y="28.223"/><use xlink:href="#23" y="30.394"/><use xlink:href="#24" y="32.565"/><use xlink:href="#25" y="34.736"/><use xlink:href="#26" y="36.907"/><use xlink:href="#27" y="39.078"/><use xlink:href="#28" y="43.42"/><use xlink:href="#29" y="45.591"/><use xlink:href="#30" y="47.762"/><use xlink:href="#31" y="49.933"/><use xlink:href="#32" y="52.104"/><use xlink:href="#33" y="54.275"/><use xlink:href="#34" y="56.446"/><use xlink:href="#35" y="58.617"/><use xlink:href="#36" y="60.788"/><use xlink:href="#37" y="62.959"/></svg><svg x="8200"><use xlink:href="#a"/><use xlink:href="#b" x="89.996" y="65.105"/><use xlink:href="#10"/><use xlink:href="#11" y="2.171"/><use xlink:href="#12" y="4.342"/><use xlink:href="#13" y="6.513"/><use xlink:href="#14" y="8.684"/><use xlink:href="#15" y="10.855"/><use xlink:href="#16" y="13.026"/><use xlink:href="#17" y="15.197"/><use xlink:href="#18" y="17.368"/><use xlink:href="#19" y="21.71"/><use xlink:href="#20" y="23.881"/><use xlink:href="#21" y="26.052"/><use xlink:href="#22" y="28.223"/><use xlink:href="#23" y="30.394"/><use xlink:href="#24" y="32.565"/><use xlink:href="#25" y="34.736"/><use xlink:href="#26" y="36.907"/><use xlink:href="#27" y="39.078"/><use xlink:href="#28" y="43.42"/><use xlink:href="#29" y="45.591"/><use xlink:href="#30" y="47.762"/><use xlink:href="#31" y="49.933"/><use xlink:href="#32" y="52.104"/><use xlink:href="#33" y="54.275"/><use xlink:href="#34" y="56.446"/><use xlink:href="#35" y="58.617"/><use xlink:href="#36" y="60.788"/><use xlink:href="#37" y="62.959"/></svg><svg x="8300"><use xlink:href="#a"/><use xlink:href="#b" x="89.996" y="65.105"/><use xlink:href="#10"/><use xlink:href="#11" y="2.171"/><use xlink:href="#12" y="4.342"/><use xlink:href="#13" y="6.513"/><use xlink:href="#14" y="8.684"/><use xlink:href="#15" y="10.855"/><use xlink:href="#16" y="13.026"/><use xlink:href="#17" y="15.197"/><use xlink:href="#18" y="17.368"/><use xlink:href="#19" y="21.71"/><use xlink:href="#20" y="23.881"/><use xlink:href="#21" y="26.052"/><use xlink:href="#22" y="28.223"/><use xlink:href="#23" y="30.394"/><use xlink:href="#24" y="32.565"/><use xlink:href="#25" y="34.736"/><use xlink:href="#26" y="36.907"/><use xlink:href="#27" y="39.078"/><use xlink:href="#28" y="43.42"/><use xlink:href="#29" y="45.591"/><use xlink:href="#30" y="47.762"/><use xlink:href="#31" y="49.933"/><use xlink:href="#32" y="52.104"/><use xlink:href="#33" y="54.275"/><use xlink:href="#34" y="56.446"/><use xlink:href="#35" y="58.617"/><use xlink:href="#36" y="60.788"/><use xlink:href="#37" y="62.959"/></svg><svg x="8400"><use xlink:href="#a"/><use xlink:href="#b" x="89.996" y="65.105"/><use xlink:href="#10"/><use xlink:href="#11" y="2.171"/><use xlink:href="#12" y="4.342"/><use xlink:href="#13" y="6.513"/><use xlink:href="#14" y="8.684"/><use xlink:href="#15" y="10.855"/><use xlink:href="#16" y="13.026"/><use xlink:href="#17" y="15.197"/><use xlink:href="#18" y="17.368"/><use xlink:href="#19" y="21.71"/><use xlink:href="#20" y="23.881"/><use xlink:href="#21" y="26.052"/><use xlink:href="#22" y="28.223"/><use xlink:href="#23" y="30.394"/><use xlink:href="#24" y="32.565"/><use xlink:href="#25" y="34.736"/><use xlink:href="#26" y="36.907"/><use xlink:href="#27" y="39.078"/><use xlink:href="#28" y="43.42"/><use xlink:href="#29" y="45.591"/><use xlink:href="#30" y="47.762"/><use xlink:href="#31" y="49.933"/><use xlink:href="#32" y="52.104"/><use xlink:href="#33" y="54.275"/><use xlink:href="#34" y="56.446"/><use xlink:href="#35" y="58.617"/><use xlink:href="#36" y="60.788"/><use xlink:href="#37" y="62.959"/></svg><svg x="8500"><use xlink:href="#a"/><use xlink:href="#b" x="89.996" y="65.105"/><use xlink:href="#10"/><use xlink:href="#11" y="2.171"/><use xlink:href="#12" y="4.342"/><use xlink:href="#13" y="6.513"/><use xlink:href="#14" y="8.684"/><use xlink:href="#15" y="10.855"/><use xlink:href="#16" y="13.026"/><use xlink:href="#17" y="15.197"/><use xlink:href="#18" y="17.368"/><use xlink:href="#19" y="21.71"/><use xlink:href="#20" y="23.881"/><use xlink:href="#21" y="26.052"/><use xlink:href="#22" y="28.223"/><use xlink:href="#23" y="30.394"/><use xlink:href="#24" y="32.565"/><use xlink:href="#25" y="34.736"/><use xlink:href="#26" y="36.907"/><use xlink:href="#27" y="39.078"/><use xlink:href="#28" y="43.42"/><use xlink:href="#29" y="45.591"/><use xlink:href="#30" y="47.762"/><use xlink:href="#31" y="49.933"/><use xlink:href="#32" y="52.104"/><use xlink:href="#33" y="54.275"/><use xlink:href="#34" y="56.446"/><use xlink:href="#35" y="58.617"/><use xlink:href="#36" y="60.788"/><use xlink:href="#37" y="62.959"/></svg><svg x="8600"><use xlink:href="#a"/><use xlink:href="#b" x="89.996" y="65.105"/><use xlink:href="#10"/><use xlink:href="#11" y="2.171"/><use xlink:href="#12" y="4.342"/><use xlink:href="#13" y="6.513"/><use xlink:href="#14" y="8.684"/><use xlink:href="#15" y="10.855"/><use xlink:href="#16" y="13.026"/><use xlink:href="#17" y="15.197"/><use xlink:href="#18" y="17.368"/><use xlink:href="#19" y="21.71"/><use xlink:href="#20" y="23.881"/><use xlink:href="#21" y="26.052"/><use xlink:href="#22" y="28.223"/><use xlink:href="#23" y="30.394"/><use xlink:href="#24" y="32.565"/><use xlink:href="#25" y="34.736"/><use xlink:href="#26" y="36.907"/><use xlink:href="#27" y="39.078"/><use xlink:href="#28" y="43.42"/><use xlink:href="#29" y="45.591"/><use xlink:href="#30" y="47.762"/><use xlink:href="#31" y="49.933"/><use xlink:href="#32" y="52.104"/><use xlink:href="#33" y="54.275"/><use xlink:href="#34" y="56.446"/><use xlink:href="#35" y="58.617"/><use xlink:href="#36" y="60.788"/><use xlink:href="#37" y="62.959"/></svg><svg x="8700"><use xlink:href="#a"/><use xlink:href="#b" x="89.996" y="65.105"/><use xlink:href="#10"/><use xlink:href="#11" y="2.171"/><use xlink:href="#12" y="4.342"/><use xlink:href="#13" y="6.513"/><use xlink:href="#14" y="8.684"/><use xlink:href="#15" y="10.855"/><use xlink:href="#16" y="13.026"/><use xlink:href="#17" y="15.197"/><use xlink:href="#18" y="17.368"/><use xlink:href="#19" y="21.71"/><use xlink:href="#20" y="23.881"/><use xlink:href="#21" y="26.052"/><use xlink:href="#22" y="28.223"/><use xlink:href="#23" y="30.394"/><use xlink:href="#24" y="32.565"/><use xlink:href="#25" y="34.736"/><use xlink:href="#26" y="36.907"/><use xlink:href="#27" y="39.078"/><use xlink:href="#28" y="43.42"/><use xlink:href="#29" y="45.591"/><use xlink:href="#30" y="47.762"/><use xlink:href="#31" y="49.933"/><use xlink:href="#32" y="52.104"/><use xlink:href="#33" y="54.275"/><use xlink:href="#34" y="56.446"/><use xlink:href="#35" y="58.617"/><use xlink:href="#36" y="60.788"/><use xlink:href="#37" y="62.959"/></svg><svg x="8800"><use xlink:href="#a"/><use xlink:href="#b" x="89.996" y="65.105"/><use xlink:href="#10"/><use xlink:href="#11" y="2.171"/><use xlink:href="#12" y="4.342"/><use xlink:href="#13" y="6.513"/><use xlink:href="#14" y="8.684"/><use xlink:href="#15" y="10.855"/><use xlink:href="#16" y="13.026"/><use xlink:href="#17" y="15.197"/><use xlink:href="#18" y="17.368"/><use xlink:href="#19" y="21.71"/><use xlink:href="#20" y="23.881"/><use xlink:href="#21" y="26.052"/><use xlink:href="#22" y="28.223"/><use xlink:href="#23" y="30.394"/><use xlink:href="#24" y="32.565"/><use xlink:href="#25" y="34.736"/><use xlink:href="#26" y="36.907"/><use xlink:href="#27" y="39.078"/><use xlink:href="#28" y="43.42"/><use xlink:href="#29" y="45.591"/><use xlink:href="#30" y="47.762"/><use xlink:href="#31" y="49.933"/><use xlink:href="#32" y="52.104"/><use xlink:href="#33" y="54.275"/><use xlink:href="#34" y="56.446"/><use xlink:href="#35" y="58.617"/><use xlink:href="#36" y="60.788"/><use xlink:href="#37" y="62.959"/></svg></svg></g></g></svg></svg>